<svg xmlns="http://www.w3.org/2000/svg" xmlns:xlink="http://www.w3.org/1999/xlink" width="1920" zoomAndPan="magnify" viewBox="0 0 1440 809.999993" height="1080" preserveAspectRatio="xMidYMid meet" version="1.0"><defs><clipPath id="d1837f833e"><path d="M 358 351 L 503 351 L 503 809.859375 L 358 809.859375 Z M 358 351 " clip-rule="nonzero"/></clipPath><clipPath id="f9c32aa798"><path d="M 148 189 L 679 189 L 679 809.859375 L 148 809.859375 Z M 148 189 " clip-rule="nonzero"/></clipPath></defs><path fill="#995120" d="M 219.902344 808.824219 L 219.902344 804.511719 L 219.011719 804.601562 C 216.851562 804.824219 214.664062 804.9375 212.503906 804.9375 C 195.421875 804.9375 178.792969 797.796875 166.878906 785.351562 C 154.851562 772.785156 148.65625 756.277344 149.425781 738.867188 L 162.941406 433.503906 C 164.949219 388.152344 202.097656 352.625 247.507812 352.625 L 281.140625 352.625 L 317.179688 352.199219 L 317.523438 351.390625 L 317.773438 351.320312 L 317.941406 351.132812 L 328.933594 337.554688 C 330.65625 335.425781 332.742188 333.546875 335.140625 331.96875 L 336.042969 331.375 L 335.222656 330.675781 C 325.582031 322.480469 318.773438 311.207031 316.046875 298.925781 L 315.941406 298.453125 L 315.472656 298.320312 C 290.386719 291.304688 272.863281 268.203125 272.863281 242.144531 C 272.863281 232.574219 275.238281 223.078125 279.730469 214.679688 L 280.023438 214.132812 L 279.570312 213.710938 C 267.652344 202.546875 261.089844 187.429688 261.089844 171.132812 C 261.089844 147.078125 276.203125 125.164062 298.695312 116.601562 L 298.292969 115.066406 C 300.21875 114.773438 302.226562 114.546875 304.316406 114.40625 L 305.085938 114.351562 L 305.054688 113.011719 C 305.042969 112.667969 305.03125 112.324219 305.03125 111.980469 C 305.03125 79.808594 331.214844 53.636719 363.398438 53.636719 C 368.742188 53.636719 374.082031 54.375 379.261719 55.835938 L 379.890625 54.363281 C 381.53125 55.328125 383.132812 56.414062 384.691406 57.625 L 384.785156 57.695312 C 384.785156 57.695312 385.726562 58.0625 385.941406 58.152344 L 386.738281 58.484375 L 387.019531 57.664062 C 395.464844 32.679688 418.867188 15.894531 445.25 15.894531 C 465.011719 15.894531 483.703125 25.503906 495.242188 41.605469 L 495.75 42.316406 L 496.417969 41.753906 C 496.808594 41.421875 497.375 40.96875 498.109375 40.441406 L 498.867188 41.808594 C 504.703125 39.511719 510.839844 38.347656 517.113281 38.347656 C 544.59375 38.347656 566.953125 60.695312 566.953125 88.167969 C 566.953125 88.855469 566.929688 89.539062 566.898438 90.21875 L 566.875 90.847656 L 567.480469 91.027344 C 588.484375 97.238281 603.15625 116.882812 603.15625 138.792969 C 603.15625 152.359375 597.785156 165.046875 588.039062 174.515625 L 587.542969 174.996094 L 588.613281 176.546875 L 588.824219 176.644531 C 589.546875 176.976562 590.359375 177.40625 591.207031 177.957031 L 590.117188 178.992188 C 594.503906 186.554688 596.824219 195.179688 596.824219 203.9375 C 596.824219 223.738281 585.085938 241.664062 566.917969 249.601562 L 566.171875 249.925781 L 566.503906 250.667969 C 569.371094 257.085938 570.824219 263.914062 570.824219 270.960938 C 570.824219 291.59375 558.402344 309.800781 539.175781 317.339844 L 538.925781 317.4375 L 538.785156 317.664062 C 532.269531 328.0625 521.675781 335.488281 509.714844 338.03125 L 508.617188 338.265625 L 509.320312 339.453125 L 509.597656 339.652344 L 509.59375 339.925781 L 515.949219 350.878906 L 516.363281 350.917969 L 516.515625 350.992188 L 567.738281 352.625 C 601.570312 352.625 631.980469 380.125 635.542969 413.921875 L 638.15625 438.710938 L 638.980469 438.601562 C 640.523438 438.398438 641.898438 438.300781 643.179688 438.300781 L 644.714844 438.300781 L 644.800781 438.28125 C 647.199219 437.757812 649.570312 437.492188 651.859375 437.492188 L 651.859375 438.300781 L 697.953125 438.300781 L 702.90625 427.214844 C 703.511719 425.855469 704.867188 424.980469 706.355469 424.980469 L 738.023438 424.980469 L 738.195312 424.402344 C 741.691406 412.660156 754.082031 403.105469 765.8125 403.105469 C 771.222656 403.105469 775.726562 405.148438 778.496094 408.859375 C 781.445312 412.816406 782.125 418.171875 780.410156 423.941406 L 780.097656 424.980469 L 803.59375 424.980469 C 804.878906 424.980469 806.066406 425.621094 806.765625 426.699219 C 807.464844 427.777344 807.570312 429.125 807.042969 430.296875 L 803.464844 438.300781 L 832.445312 438.300781 C 842.511719 438.300781 851.8125 442.867188 857.960938 450.835938 C 864.113281 458.800781 866.175781 468.953125 863.625 478.683594 L 845.273438 548.691406 L 855.535156 611.835938 C 855.996094 613.992188 856.304688 615.898438 856.460938 617.550781 C 858.003906 633.617188 855.347656 669.582031 852.097656 687.753906 C 850.605469 696.097656 838.324219 697.847656 828.285156 697.847656 C 828.28125 697.847656 828.28125 697.847656 828.28125 697.847656 C 822.15625 697.847656 815.132812 697.226562 807.414062 696.003906 L 806.691406 695.890625 L 797.542969 730.792969 C 793.832031 744.957031 781.007812 754.847656 766.363281 754.847656 L 671.496094 754.847656 L 677.1875 808.824219 Z M 324.101562 60.890625 C 324.253906 60.769531 339.84375 48.664062 358.894531 48.664062 C 365.738281 48.664062 372.183594 50.246094 378.128906 53.378906 C 372.183594 50.253906 365.710938 48.671875 358.863281 48.671875 C 339.921875 48.671875 324.257812 60.769531 324.101562 60.890625 Z M 324.101562 60.890625 " fill-opacity="1" fill-rule="nonzero"/><g clip-path="url(#d1837f833e)"><path fill="#4f6a92" d="M 417.328125 408.886719 C 394.632812 408.886719 374.402344 400.875 361.363281 388.441406 L 360.539062 378.070312 L 359.242188 361.738281 C 361.046875 367.535156 366.109375 372.78125 373.441406 376.996094 C 384.46875 383.335938 400.636719 387.34375 418.671875 387.34375 C 434.039062 387.34375 448.050781 384.433594 458.683594 379.652344 C 471.042969 374.09375 478.835938 366.007812 478.835938 356.996094 C 478.835938 356.867188 478.820312 356.738281 478.816406 356.609375 L 478.816406 351.816406 L 479.042969 351.816406 L 480.207031 374.65625 L 480.484375 380.097656 C 468.613281 397.183594 444.765625 408.886719 417.328125 408.886719 Z M 432.917969 754.6875 L 434.996094 769.453125 L 393.597656 776.375 C 393.671875 776.8125 393.378906 777.226562 392.9375 777.304688 L 392.210938 777.429688 L 394.761719 809.632812 L 502.417969 809.632812 L 498.636719 735.617188 Z M 436.273438 630.375 C 438.160156 627.738281 440.304688 625.347656 442.644531 623.191406 L 448.03125 616.0625 C 458.804688 601.8125 474.039062 591.546875 491.066406 587.332031 L 480.617188 382.648438 C 468.082031 399.265625 444.417969 410.5 417.328125 410.5 C 394.953125 410.5 374.914062 402.835938 361.550781 390.804688 L 381.261719 639.375 L 415.894531 636.691406 Z M 358.457031 351.816406 L 358.636719 354.070312 L 358.632812 351.816406 Z M 358.457031 351.816406 " fill-opacity="1" fill-rule="nonzero"/></g><path fill="#995120" d="M 418.671875 387.34375 C 400.636719 387.34375 384.46875 383.335938 373.441406 376.996094 C 366.109375 372.78125 361.046875 367.535156 359.242188 361.738281 L 358.867188 356.996094 L 358.691406 354.75 L 358.636719 354.070312 L 358.632812 351.816406 L 358.628906 343.613281 L 358.621094 326.648438 L 358.605469 294.585938 L 358.59375 270.960938 L 364.546875 244.128906 L 365.121094 241.546875 L 366.128906 236.996094 L 370.257812 244.238281 L 377.792969 257.464844 L 384.148438 268.613281 L 396.246094 289.835938 L 394.761719 291.492188 L 410.625 315.097656 C 410.300781 315.316406 410.164062 315.738281 410.339844 316.105469 C 410.539062 316.515625 412.492188 320.390625 417.671875 325.011719 C 418.277344 325.550781 418.933594 326.105469 419.632812 326.660156 C 422.734375 329.140625 426.753906 331.734375 431.921875 334.0625 C 436.625 336.417969 441.667969 338.097656 446.910156 339.015625 C 451.335938 340.03125 456.265625 340.832031 461.746094 341.316406 C 464.59375 341.570312 467.597656 341.738281 470.75 341.808594 C 471.90625 341.835938 473.058594 341.863281 474.253906 341.863281 C 475.738281 341.863281 477.265625 341.839844 478.816406 341.796875 L 478.816406 356.609375 C 478.820312 356.738281 478.835938 356.867188 478.835938 356.996094 C 478.835938 366.007812 471.042969 374.09375 458.683594 379.652344 C 448.050781 384.433594 434.039062 387.34375 418.671875 387.34375 Z M 443.292969 238.179688 L 385.140625 189.171875 C 392.09375 186.691406 412.6875 178.269531 420.710938 163.171875 C 425.382812 154.375 427.726562 145.234375 428.851562 137.398438 C 430.570312 125.46875 429.472656 116.570312 429.472656 116.570312 C 429.472656 116.570312 443.339844 137.078125 467.042969 128.609375 C 469.554688 127.710938 471.71875 126.59375 473.601562 125.34375 C 470.921875 128.394531 467.6875 131.050781 463.816406 132.675781 C 455.996094 135.957031 446.871094 134.515625 436.699219 128.386719 C 436.316406 128.152344 435.820312 128.28125 435.589844 128.664062 C 435.363281 129.042969 435.484375 129.542969 435.867188 129.773438 C 442.761719 133.925781 449.226562 136.007812 455.1875 136.007812 C 458.425781 136.007812 461.515625 135.394531 464.441406 134.164062 C 470.746094 131.519531 475.40625 126.4375 478.753906 121.203125 C 479.039062 120.757812 479.316406 120.316406 479.582031 119.871094 C 483.113281 115.433594 484.589844 110.601562 485.210938 107.265625 C 485.75 105.574219 486.023438 104.457031 486.070312 104.261719 C 486.101562 104.136719 486.09375 104.015625 486.066406 103.898438 C 487.035156 105.777344 489.667969 110.742188 493.464844 116.734375 C 496.210938 121.074219 499.570312 125.945312 503.34375 130.578125 C 505.5625 133.300781 507.921875 135.9375 510.390625 138.335938 C 513.015625 140.886719 515.765625 143.164062 518.585938 144.980469 C 530.90625 152.894531 539.128906 152.234375 543.679688 150.507812 C 543.777344 151.3125 543.882812 152.289062 543.980469 153.40625 C 544.523438 159.558594 544.84375 170.199219 542.644531 182.855469 C 542.566406 183.296875 542.863281 183.714844 543.300781 183.789062 C 543.351562 183.800781 543.394531 183.804688 543.441406 183.804688 C 543.828125 183.804688 544.167969 183.527344 544.238281 183.132812 C 546.453125 170.382812 546.144531 159.628906 545.597656 153.34375 C 545.59375 153.269531 545.585938 153.210938 545.578125 153.136719 C 545.597656 153.207031 545.613281 153.273438 545.632812 153.34375 C 548.234375 163.828125 549.574219 175.585938 549.277344 188.738281 C 549.273438 188.902344 549.269531 189.078125 549.265625 189.242188 C 549.046875 199.226562 548.828125 213.726562 548.5 228.460938 C 548.367188 234.371094 548.214844 240.3125 548.039062 246.015625 L 515.507812 243.582031 L 480.210938 240.941406 Z M 478.824219 206.171875 C 478.992188 202.332031 477.011719 199.128906 474.398438 199.011719 C 471.78125 198.898438 469.527344 201.917969 469.359375 205.753906 C 469.191406 209.59375 471.171875 212.796875 473.789062 212.914062 C 476.402344 213.027344 478.65625 210.007812 478.824219 206.171875 Z M 516.265625 241.941406 L 510.886719 221.34375 L 505 198.804688 C 504.886719 198.375 504.449219 198.117188 504.015625 198.226562 C 503.582031 198.339844 503.324219 198.78125 503.4375 199.214844 L 509.308594 221.699219 L 514.703125 242.351562 C 514.796875 242.714844 515.125 242.953125 515.484375 242.953125 C 515.550781 242.953125 515.621094 242.945312 515.6875 242.929688 C 516.121094 242.816406 516.378906 242.375 516.265625 241.941406 Z M 523.535156 212.914062 C 526.148438 213.027344 528.40625 210.007812 528.574219 206.171875 C 528.742188 202.332031 526.757812 199.128906 524.144531 199.011719 C 521.53125 198.898438 519.273438 201.917969 519.105469 205.753906 C 518.9375 209.59375 520.921875 212.796875 523.535156 212.914062 Z M 485.65625 103.085938 C 485.65625 103.085938 485.65625 103.191406 485.652344 103.371094 C 485.75 103.421875 485.832031 103.484375 485.898438 103.566406 C 485.746094 103.265625 485.65625 103.085938 485.65625 103.085938 Z M 463.671875 339.84375 C 465.300781 339.96875 466.96875 340.070312 468.695312 340.136719 C 469.722656 340.175781 470.78125 340.195312 471.839844 340.210938 C 474.09375 340.25 476.398438 340.253906 478.8125 340.183594 L 478.816406 340.183594 L 478.816406 339.84375 Z M 362.941406 228.78125 C 364.542969 228.890625 366.210938 228.902344 367.945312 228.8125 L 366.652344 234.644531 L 372.910156 245.628906 L 382.160156 261.855469 L 385 266.839844 L 397.378906 288.566406 L 402.738281 282.570312 L 415.710938 268.058594 L 424.898438 257.78125 L 441.714844 238.964844 L 385.265625 191.394531 L 385.480469 190.929688 C 385.480469 190.929688 384.921875 190.414062 383.9375 189.59375 C 382.816406 188.65625 381.132812 187.324219 379.027344 185.871094 C 378.410156 185.449219 377.757812 185.015625 377.074219 184.578125 C 373.652344 182.394531 369.445312 180.160156 364.925781 178.785156 C 357.210938 176.433594 348.613281 176.605469 341.582031 183.914062 C 339.957031 185.605469 338.425781 187.707031 336.996094 190.210938 L 361.378906 197.101562 L 371.175781 199.871094 L 373.1875 200.441406 L 378.242188 201.867188 L 380.039062 202.375 C 380.082031 202.386719 380.113281 202.417969 380.152344 202.433594 C 380.507812 202.597656 380.707031 202.988281 380.597656 203.375 C 380.496094 203.730469 380.175781 203.960938 379.820312 203.960938 C 379.746094 203.960938 379.671875 203.953125 379.601562 203.929688 L 379.476562 203.894531 L 377.664062 203.382812 L 375.335938 202.726562 L 370.34375 201.316406 L 361.140625 198.714844 L 336.351562 191.707031 C 336.300781 191.695312 336.265625 191.664062 336.222656 191.644531 C 331.78125 200.890625 335.300781 215.644531 346.933594 223.515625 C 348.257812 224.414062 349.695312 225.214844 351.234375 225.914062 C 351.953125 226.207031 354.855469 227.324219 358.589844 228.113281 C 359.160156 228.234375 359.746094 228.347656 360.347656 228.449219 C 361.191406 228.589844 362.058594 228.699219 362.941406 228.78125 Z M 506.566406 585.214844 C 505.238281 585.25 503.914062 585.328125 502.59375 585.433594 C 502.601562 585.535156 502.589844 585.640625 502.554688 585.746094 C 502.546875 585.773438 501.667969 588.527344 502.839844 590.453125 C 503.441406 591.441406 504.519531 592.070312 506.046875 592.320312 C 510.617188 593.066406 515.414062 592.152344 517.445312 590.140625 C 518.339844 589.261719 518.683594 588.230469 518.5 586.996094 C 518.480469 586.859375 518.503906 586.730469 518.550781 586.609375 C 515.230469 585.488281 511.082031 585.105469 506.566406 585.214844 Z M 552.199219 632.089844 C 556.660156 632.089844 562.105469 629.363281 562.105469 626.179688 C 562.105469 623 556.660156 620.273438 552.199219 620.273438 C 548.210938 620.273438 545.925781 622.425781 545.925781 626.179688 C 545.925781 629.933594 548.210938 632.089844 552.199219 632.089844 Z M 559.792969 688.269531 C 560.226562 688.554688 560.730469 688.777344 561.289062 688.929688 C 561.90625 689.097656 562.574219 689.203125 563.332031 689.203125 C 567.335938 689.203125 572.226562 686.769531 572.226562 683.925781 C 572.226562 681.238281 567.84375 678.914062 563.980469 678.675781 C 563.761719 678.660156 563.542969 678.652344 563.332031 678.652344 C 562.964844 678.652344 562.628906 678.683594 562.296875 678.726562 C 559.382812 679.074219 557.726562 680.917969 557.726562 683.925781 C 557.726562 685.917969 558.460938 687.390625 559.792969 688.269531 Z M 553.082031 713.867188 C 553.453125 713.941406 553.84375 713.992188 554.273438 713.992188 C 554.425781 713.992188 554.578125 713.964844 554.730469 713.957031 C 557.894531 713.78125 561.074219 711.867188 561.074219 710.03125 C 561.074219 708.582031 559.097656 707.070312 556.707031 706.414062 C 556.191406 706.269531 555.652344 706.183594 555.113281 706.128906 C 554.832031 706.101562 554.550781 706.070312 554.273438 706.070312 C 551.589844 706.070312 550.054688 707.511719 550.054688 710.03125 C 550.054688 712.144531 551.148438 713.488281 553.082031 713.867188 Z M 597.46875 649.746094 C 601.550781 658.109375 581.269531 666.335938 565.929688 671.226562 C 565.316406 671.421875 564.707031 671.617188 564.109375 671.800781 C 560.886719 672.800781 557.96875 673.632812 555.617188 674.273438 C 554.582031 674.558594 553.664062 674.800781 552.878906 675.007812 C 552.792969 674.667969 552.503906 674.410156 552.136719 674.398438 C 525.308594 673.476562 498.050781 678.378906 497.777344 678.429688 C 497.339844 678.507812 497.046875 678.929688 497.128906 679.367188 C 497.199219 679.757812 497.539062 680.03125 497.921875 680.03125 C 497.96875 680.03125 498.019531 680.027344 498.066406 680.019531 C 498.339844 679.96875 525.429688 675.113281 552.082031 676.015625 C 552.40625 676.039062 552.683594 675.851562 552.820312 675.582031 C 553.542969 675.554688 554.371094 675.539062 555.285156 675.539062 C 557.527344 675.542969 560.25 675.660156 562.996094 676.042969 C 563.53125 676.117188 564.066406 676.203125 564.601562 676.300781 C 570.773438 677.417969 576.621094 680.054688 576.917969 686.019531 C 577.238281 692.457031 568.199219 695.667969 559.105469 697.265625 C 558.523438 697.371094 557.941406 697.464844 557.359375 697.554688 C 554.511719 697.996094 551.722656 698.285156 549.273438 698.480469 C 546.941406 698.664062 544.917969 698.757812 543.453125 698.808594 C 543.347656 698.574219 543.144531 698.390625 542.875 698.34375 C 524.777344 695.058594 508.5625 699.667969 508.398438 699.714844 C 507.972656 699.839844 507.722656 700.289062 507.847656 700.71875 C 507.949219 701.070312 508.273438 701.300781 508.625 701.300781 C 508.699219 701.300781 508.773438 701.289062 508.851562 701.265625 C 509.007812 701.21875 524.851562 696.714844 542.585938 699.933594 C 542.996094 700.007812 543.445312 699.722656 543.527344 699.28125 C 543.527344 699.28125 543.527344 699.277344 543.527344 699.277344 C 544.90625 699.523438 546.734375 699.886719 548.773438 700.378906 C 551.0625 700.929688 553.601562 701.648438 556.050781 702.550781 C 556.558594 702.738281 557.066406 702.933594 557.566406 703.136719 C 562.738281 705.253906 567.125 708.25 567.1875 712.34375 C 567.242188 715.875 561.28125 719.066406 553.546875 721.726562 C 553.011719 721.910156 552.476562 722.089844 551.925781 722.269531 C 549.421875 723.082031 546.769531 723.835938 544.101562 724.535156 C 531.777344 727.753906 519.113281 729.679688 519.113281 729.679688 L 498.636719 735.617188 L 432.917969 754.6875 L 416.539062 638.25 C 416.957031 638.191406 417.265625 637.824219 417.230469 637.398438 C 417.199219 636.953125 416.832031 636.613281 416.363281 636.652344 L 415.894531 636.691406 L 436.273438 630.375 C 438.160156 627.738281 440.304688 625.347656 442.644531 623.191406 L 448.03125 616.0625 C 458.804688 601.8125 474.039062 591.546875 491.066406 587.332031 C 494.292969 586.535156 497.582031 585.953125 500.921875 585.605469 C 500.675781 586.539062 500.164062 589.15625 501.453125 591.28125 C 502.308594 592.699219 503.769531 593.585938 505.789062 593.914062 C 506.855469 594.089844 508.023438 594.183594 509.21875 594.183594 C 512.730469 594.183594 516.484375 593.363281 518.582031 591.292969 C 519.722656 590.171875 520.222656 588.765625 520.117188 587.222656 C 520.609375 587.445312 521.078125 587.6875 521.523438 587.953125 C 531.855469 594.148438 513.375 605.269531 502.003906 611.105469 C 523.96875 611.863281 547.128906 614.136719 558.933594 619.890625 C 579.570312 629.953125 556.824219 638.4375 546.011719 641.640625 C 523.203125 640.945312 500.277344 644.378906 494.03125 645.402344 C 492.992188 645.574219 492.398438 645.679688 492.359375 645.6875 C 491.921875 645.765625 491.632812 646.1875 491.710938 646.625 C 491.78125 647.015625 492.121094 647.289062 492.503906 647.289062 C 492.554688 647.289062 492.601562 647.285156 492.652344 647.277344 C 492.6875 647.269531 493.203125 647.179688 494.113281 647.027344 C 500.089844 646.042969 523.535156 642.496094 546.667969 643.273438 C 547.058594 643.304688 547.484375 642.941406 547.5 642.492188 C 547.503906 642.433594 547.484375 642.382812 547.472656 642.328125 C 551.792969 641.945312 557.816406 641.53125 564.21875 641.453125 C 566.796875 641.421875 569.429688 641.445312 572.039062 641.546875 C 572.59375 641.570312 573.140625 641.597656 573.691406 641.628906 C 584.664062 642.207031 594.8125 644.296875 597.46875 649.746094 Z M 544.308594 626.179688 C 544.308594 630.820312 547.332031 633.703125 552.199219 633.703125 C 557.527344 633.703125 563.722656 630.417969 563.722656 626.179688 C 563.722656 621.941406 557.527344 618.65625 552.199219 618.65625 C 547.332031 618.65625 544.308594 621.539062 544.308594 626.179688 Z M 494.085938 610.890625 C 493.464844 610.976562 492.878906 611.070312 492.285156 611.164062 C 478.992188 613.222656 472.152344 617.613281 471.816406 617.835938 C 471.445312 618.082031 471.339844 618.582031 471.589844 618.957031 C 471.742188 619.191406 472 619.320312 472.261719 619.320312 C 472.414062 619.320312 472.570312 619.277344 472.707031 619.1875 C 472.785156 619.132812 479.496094 614.839844 492.367188 612.792969 C 494.824219 612.402344 497.5 612.09375 500.40625 611.914062 C 500.585938 611.902344 500.753906 611.882812 500.9375 611.871094 C 501.292969 611.851562 501.570312 611.601562 501.660156 611.277344 C 501.675781 611.21875 501.683594 611.15625 501.6875 611.09375 C 501.6875 611.066406 501.699219 611.046875 501.699219 611.019531 C 501.671875 610.574219 501.265625 610.230469 500.84375 610.257812 C 498.441406 610.394531 496.191406 610.613281 494.085938 610.890625 Z M 548.4375 710.03125 C 548.4375 712.9375 550.046875 714.894531 552.714844 715.4375 C 553.203125 715.539062 553.714844 715.605469 554.273438 715.605469 C 554.292969 715.605469 554.3125 715.605469 554.332031 715.605469 C 558.210938 715.578125 562.691406 713.15625 562.691406 710.03125 C 562.691406 707.644531 560.078125 705.667969 557.117188 704.855469 C 556.59375 704.710938 556.0625 704.605469 555.527344 704.539062 C 555.105469 704.484375 554.6875 704.453125 554.273438 704.453125 C 550.671875 704.453125 548.4375 706.589844 548.4375 710.03125 Z M 556.109375 683.925781 C 556.109375 686.703125 557.308594 688.777344 559.367188 689.890625 C 559.828125 690.140625 560.339844 690.332031 560.882812 690.480469 C 561.632812 690.683594 562.4375 690.820312 563.332031 690.820312 C 568.191406 690.820312 573.84375 687.808594 573.84375 683.925781 C 573.84375 680.328125 568.980469 677.480469 564.394531 677.085938 C 564.039062 677.054688 563.683594 677.035156 563.332031 677.035156 C 563.121094 677.035156 562.929688 677.070312 562.726562 677.082031 C 558.636719 677.320312 556.109375 679.878906 556.109375 683.925781 Z M 591.683594 651.03125 C 591.683594 647.175781 586.074219 644.1875 581.25 644.1875 C 576.824219 644.1875 574.078125 646.808594 574.078125 651.03125 C 574.078125 655.25 576.824219 657.871094 581.25 657.871094 C 586.074219 657.871094 591.683594 654.882812 591.683594 651.03125 Z M 581.25 645.804688 C 577.71875 645.804688 575.691406 647.707031 575.691406 651.03125 C 575.691406 654.351562 577.71875 656.257812 581.25 656.257812 C 585.21875 656.257812 590.066406 653.84375 590.066406 651.03125 C 590.066406 648.214844 585.21875 645.804688 581.25 645.804688 Z M 852.890625 687.894531 C 850.714844 700.066406 827.96875 700.082031 807.289062 696.800781 C 804.976562 696.4375 802.691406 696.03125 800.464844 695.597656 C 802.472656 695.726562 804.429688 695.792969 806.316406 695.792969 C 806.742188 695.792969 807.140625 695.769531 807.558594 695.765625 C 828.757812 695.464844 841.710938 687.742188 841.867188 687.644531 C 842.246094 687.414062 842.367188 686.914062 842.132812 686.535156 C 841.902344 686.15625 841.40625 686.035156 841.019531 686.269531 C 840.871094 686.359375 828.460938 693.777344 807.980469 694.160156 C 803.480469 694.242188 798.597656 693.992188 793.363281 693.242188 C 792.953125 693.183594 792.574219 693.453125 792.476562 693.851562 C 785.734375 692.234375 780.039062 690.46875 776.5625 689.003906 C 761.890625 682.820312 761.28125 672.324219 761.28125 672.324219 C 760.894531 672.324219 760.5 672.316406 760.101562 672.300781 C 760.515625 672.304688 761.042969 672.304688 761.726562 672.304688 C 769.09375 672.304688 791.265625 672.117188 814.285156 670.101562 C 823.136719 669.328125 832.109375 668.28125 840.417969 666.871094 C 840.859375 666.796875 841.15625 666.378906 841.082031 665.941406 C 841.003906 665.5 840.582031 665.214844 840.148438 665.277344 C 832.0625 666.648438 823.34375 667.671875 814.722656 668.441406 C 791.570312 670.5 769.144531 670.691406 761.738281 670.691406 C 760.066406 670.691406 759.226562 670.6875 759.175781 670.679688 C 758.734375 670.679688 758.371094 671.035156 758.367188 671.480469 C 758.363281 671.84375 758.605469 672.144531 758.9375 672.25 C 747.148438 671.527344 731.59375 665.589844 732.496094 657.023438 C 733.273438 649.640625 740.429688 645.886719 743.167969 644.707031 C 743.167969 644.753906 743.15625 644.796875 743.167969 644.839844 C 743.246094 645.222656 743.582031 645.484375 743.957031 645.484375 C 744.011719 645.484375 744.066406 645.480469 744.121094 645.46875 C 744.382812 645.414062 770.75 640.0625 796.882812 638.265625 C 807.136719 637.558594 815.984375 637.171875 822.972656 636.957031 C 833.8125 636.625 840.167969 636.71875 840.269531 636.722656 C 840.273438 636.722656 840.277344 636.722656 840.285156 636.722656 C 840.722656 636.722656 841.085938 636.367188 841.09375 635.925781 C 841.101562 635.480469 840.742188 635.113281 840.296875 635.105469 C 840.195312 635.105469 833.996094 635.011719 823.402344 635.328125 C 816.320312 635.539062 807.277344 635.929688 796.773438 636.652344 C 771.941406 638.363281 746.925781 643.261719 744.078125 643.828125 C 732.347656 610.03125 794.75 604.851562 813.808594 604.058594 C 813.828125 604.488281 814.179688 604.832031 814.613281 604.832031 C 814.621094 604.832031 814.628906 604.832031 814.632812 604.832031 L 831.496094 604.449219 L 840.691406 604.238281 C 841.136719 604.226562 841.488281 603.855469 841.480469 603.410156 C 841.46875 602.964844 841.109375 602.625 840.652344 602.621094 L 831.921875 602.820312 L 818.6875 603.121094 L 810.046875 590.167969 C 819.347656 588.492188 824.59375 584.128906 824.820312 583.9375 C 825.15625 583.648438 825.199219 583.140625 824.910156 582.800781 C 824.621094 582.460938 824.113281 582.417969 823.773438 582.707031 C 823.71875 582.75 818.265625 587.289062 808.828125 588.746094 C 808.398438 588.808594 808.109375 589.203125 808.15625 589.628906 C 799.523438 590.554688 754.25 594.753906 750.332031 581.691406 C 745.996094 567.246094 809.402344 552.933594 827.402344 561.46875 C 830.882812 563.121094 834.34375 566.347656 837.613281 570.503906 C 837.285156 570.761719 837.199219 571.230469 837.441406 571.585938 L 838.214844 572.722656 L 839.367188 574.417969 L 846.6875 585.1875 L 847.480469 586.355469 C 847.636719 586.582031 847.890625 586.707031 848.148438 586.707031 C 848.308594 586.707031 848.464844 586.664062 848.605469 586.566406 C 848.972656 586.316406 849.066406 585.8125 848.816406 585.445312 L 839.910156 572.34375 L 838.832031 570.757812 L 845.992188 548.058594 L 846.097656 548.730469 L 856.332031 611.707031 C 856.78125 613.796875 857.101562 615.746094 857.269531 617.472656 C 858.785156 633.304688 856.28125 668.96875 852.890625 687.894531 Z M 785.488281 577.230469 C 785.207031 573.296875 782.976562 569.335938 778.628906 569.335938 C 778.625 569.335938 778.621094 569.335938 778.621094 569.335938 C 775.332031 569.339844 762.785156 573.9375 762.054688 578.59375 C 761.730469 580.667969 763.453125 582.332031 767.175781 583.535156 C 770.351562 584.5625 774.5 585.027344 777.929688 585.027344 C 779.335938 585.027344 780.621094 584.949219 781.667969 584.800781 C 784.503906 584.394531 785.738281 580.683594 785.488281 577.230469 Z M 775.195312 627.378906 C 774.765625 623.199219 771.6875 618.949219 766.632812 618.90625 C 766.597656 618.90625 766.5625 618.902344 766.527344 618.902344 C 759.898438 618.902344 752.0625 624.414062 751.511719 629.492188 C 751.320312 631.265625 751.898438 634.429688 757.925781 635.695312 C 759.410156 636.003906 761.640625 636.160156 763.855469 636.160156 C 766.078125 636.160156 768.289062 636.003906 769.726562 635.695312 C 773.484375 634.878906 775.632812 631.617188 775.195312 627.378906 Z M 770.472656 653.886719 C 769.785156 650.722656 767.730469 648.753906 764.832031 648.488281 C 761.101562 648.160156 745.125 650.996094 742.757812 656.585938 C 742.222656 657.847656 742.128906 659.820312 744.722656 662.046875 C 747.167969 664.152344 752.183594 664.976562 757.007812 664.976562 C 761.550781 664.976562 765.925781 664.246094 767.824219 663.167969 C 770.03125 661.914062 771.269531 657.578125 770.472656 653.886719 Z M 796.457031 681.679688 C 796.28125 678.59375 794.953125 674.824219 791.808594 674.347656 C 789.175781 673.949219 779.464844 676.179688 777.933594 680.277344 C 777.429688 681.625 777.570312 683.703125 781.121094 685.957031 C 784.046875 687.8125 788.011719 688.355469 790.875 688.355469 C 792.269531 688.355469 793.40625 688.226562 794.03125 688.058594 C 795.929688 687.539062 796.617188 684.480469 796.457031 681.679688 Z M 766.617188 620.519531 C 766.585938 620.519531 766.550781 620.519531 766.519531 620.519531 C 760.230469 620.519531 753.546875 625.730469 753.121094 629.664062 C 752.828125 632.390625 755.75 633.585938 758.257812 634.113281 C 761.007812 634.6875 766.722656 634.691406 769.386719 634.113281 C 772.90625 633.351562 773.851562 630.097656 773.589844 627.546875 C 773.230469 624.082031 770.722656 620.554688 766.617188 620.519531 Z M 778.628906 570.949219 C 778.628906 570.949219 778.625 570.949219 778.621094 570.949219 C 775.535156 570.953125 764.1875 575.4375 763.652344 578.84375 C 763.421875 580.300781 765.710938 581.363281 767.671875 581.996094 C 771.925781 583.375 778.007812 583.6875 781.441406 583.199219 C 783.027344 582.972656 784.097656 580.402344 783.878906 577.34375 C 783.664062 574.394531 782.164062 570.949219 778.628906 570.949219 Z M 791.5625 675.945312 C 791.398438 675.917969 791.199219 675.90625 790.976562 675.90625 C 788.019531 675.90625 780.488281 678.066406 779.445312 680.84375 C 779.019531 681.988281 779.875 683.25 781.988281 684.589844 C 785.675781 686.929688 791.800781 686.988281 793.605469 686.496094 C 794.308594 686.304688 794.988281 684.316406 794.84375 681.769531 C 794.6875 679.09375 793.613281 676.257812 791.5625 675.945312 Z M 764.6875 650.097656 C 764.488281 650.082031 764.265625 650.074219 764.015625 650.074219 C 759.429688 650.074219 746.035156 652.992188 744.246094 657.214844 C 744.070312 657.628906 743.535156 658.894531 745.777344 660.820312 C 749.925781 664.390625 763.601562 663.710938 767.027344 661.761719 C 768.4375 660.964844 769.582031 657.425781 768.890625 654.230469 C 768.515625 652.484375 767.480469 650.351562 764.6875 650.097656 Z M 764.6875 650.097656 " fill-opacity="1" fill-rule="nonzero"/><g clip-path="url(#f9c32aa798)"><path fill="#f3f0ec" d="M 478.816406 339.84375 L 463.671875 339.84375 C 463.066406 339.796875 462.46875 339.746094 461.875 339.691406 C 460.972656 339.609375 460.085938 339.515625 459.214844 339.417969 C 441.441406 337.390625 429.878906 331.933594 422.632812 326.722656 C 421.195312 325.691406 419.917969 324.667969 418.804688 323.6875 C 413.707031 319.1875 411.84375 315.503906 411.796875 315.40625 C 411.601562 315.003906 411.121094 314.835938 410.71875 315.027344 C 410.683594 315.042969 410.660156 315.074219 410.625 315.097656 L 394.761719 291.492188 L 396.246094 289.835938 L 384.148438 268.613281 L 377.792969 257.464844 L 370.257812 244.238281 L 366.128906 236.996094 L 366.652344 234.644531 L 372.910156 245.628906 L 382.160156 261.855469 L 385 266.839844 L 397.378906 288.566406 L 402.738281 282.570312 L 415.710938 268.058594 L 424.898438 257.78125 L 441.714844 238.964844 L 385.265625 191.394531 L 385.480469 190.929688 C 385.480469 190.929688 384.921875 190.414062 383.9375 189.59375 C 384.273438 189.480469 384.679688 189.339844 385.140625 189.171875 L 443.292969 238.179688 L 480.210938 240.941406 L 515.507812 243.582031 L 548.039062 246.015625 L 548.367188 246.039062 L 548.039062 254.535156 L 546.480469 295.332031 C 546.160156 303.691406 543.625 311.460938 539.46875 318.09375 C 532.917969 328.550781 522.3125 336.175781 509.886719 338.820312 L 509.953125 338.933594 C 509.863281 338.894531 509.761719 338.875 509.648438 338.871094 C 509.621094 338.871094 509.597656 338.859375 509.570312 338.863281 L 486.726562 339.84375 L 478.816406 340.183594 Z M 219.09375 805.707031 L 220.28125 805.503906 L 247.144531 800.859375 L 385.058594 777.023438 L 361.605469 642.523438 L 296.902344 647.539062 L 247.722656 661.4375 C 247.296875 661.566406 246.847656 661.308594 246.726562 660.882812 C 246.601562 660.453125 246.855469 660.003906 247.285156 659.882812 L 292.042969 647.234375 L 261.375 645.179688 C 260.929688 645.152344 260.59375 644.765625 260.621094 644.320312 C 260.652344 643.875 261.058594 643.535156 261.484375 643.566406 L 295.898438 645.871094 L 290.21875 553.171875 C 290.214844 553.140625 290.210938 553.113281 290.210938 553.085938 L 285.578125 477.441406 C 285.550781 476.996094 285.886719 476.613281 286.335938 476.585938 C 286.757812 476.558594 287.164062 476.898438 287.191406 477.339844 L 291.414062 546.253906 L 301.253906 490.9375 C 301.332031 490.5 301.742188 490.207031 302.191406 490.285156 C 302.628906 490.363281 302.921875 490.78125 302.84375 491.222656 L 291.835938 553.121094 L 297.320312 642.628906 L 297.519531 645.871094 L 362.183594 640.855469 C 362.203125 640.855469 362.222656 640.851562 362.242188 640.851562 L 381.261719 639.375 L 361.550781 390.804688 L 361.363281 388.441406 L 360.539062 378.070312 L 359.242188 361.738281 L 358.867188 356.996094 L 358.691406 354.75 L 358.636719 354.070312 L 358.457031 351.816406 L 358.632812 351.816406 L 358.628906 343.613281 L 358.621094 326.648438 L 350.097656 326.648438 C 344.554688 326.648438 339.222656 328.316406 334.699219 331.292969 C 332.3125 332.863281 330.140625 334.777344 328.304688 337.046875 L 317.3125 350.625 C 317.480469 350.578125 317.664062 350.574219 317.835938 350.644531 C 318.144531 350.773438 318.328125 351.066406 318.332031 351.378906 C 318.332031 351.488281 318.3125 351.597656 318.269531 351.703125 L 318.21875 351.816406 L 316.917969 354.898438 L 314.945312 359.574219 L 303.949219 385.609375 L 330.417969 365.851562 L 335.3125 362.199219 L 344.601562 355.261719 L 345.269531 354.765625 L 349.214844 351.816406 L 350.308594 351 L 350.722656 350.691406 C 351.078125 350.425781 351.585938 350.5 351.851562 350.855469 C 351.882812 350.894531 351.890625 350.941406 351.914062 350.984375 C 352.050781 351.257812 352.023438 351.574219 351.839844 351.816406 C 351.796875 351.878906 351.753906 351.941406 351.6875 351.988281 L 346.175781 356.101562 L 344.601562 357.28125 L 335.007812 364.441406 L 333.128906 365.84375 L 334.359375 367.449219 L 334.5625 367.71875 L 349.757812 387.546875 C 350.027344 387.902344 349.960938 388.410156 349.605469 388.679688 C 349.460938 388.792969 349.289062 388.847656 349.117188 388.847656 C 348.871094 388.847656 348.632812 388.738281 348.476562 388.53125 L 334.257812 369.976562 L 331.832031 366.8125 L 302.53125 388.6875 C 302.238281 388.902344 301.835938 388.898438 301.550781 388.675781 C 301.261719 388.449219 301.160156 388.0625 301.304688 387.726562 L 313.445312 358.96875 L 314.882812 355.566406 L 316.464844 351.816406 L 316.59375 351.511719 L 316.640625 351.398438 L 281.140625 351.816406 L 247.511719 351.816406 C 201.78125 351.816406 164.15625 387.800781 162.132812 433.46875 L 148.617188 738.832031 C 146.878906 778.152344 180.566406 809.359375 219.09375 805.40625 Z M 386.15625 778.476562 C 386.136719 778.480469 386.121094 778.484375 386.101562 778.484375 L 220.070312 807.179688 L 219.09375 807.347656 L 219.09375 809.632812 L 394.761719 809.632812 L 392.210938 777.429688 Z M 672.390625 755.65625 L 586.585938 755.65625 C 586.585938 756.101562 586.226562 756.464844 585.777344 756.464844 C 583.261719 756.464844 580.789062 756.183594 578.398438 755.65625 L 577.097656 755.65625 C 559.035156 755.65625 545.058594 741.410156 544.101562 724.535156 C 531.777344 727.753906 519.113281 729.679688 519.113281 729.679688 L 498.636719 735.617188 L 502.417969 809.632812 L 678.085938 809.632812 Z M 555.285156 675.539062 L 555.617188 674.273438 C 554.582031 674.558594 553.664062 674.800781 552.878906 675.007812 C 552.898438 675.082031 552.921875 675.152344 552.917969 675.234375 C 552.914062 675.359375 552.875 675.472656 552.820312 675.582031 C 553.542969 675.554688 554.371094 675.539062 555.285156 675.539062 Z M 543.527344 699.277344 C 544.90625 699.523438 546.734375 699.886719 548.773438 700.378906 L 549.273438 698.480469 C 546.941406 698.664062 544.917969 698.757812 543.453125 698.808594 C 543.519531 698.953125 543.554688 699.109375 543.527344 699.277344 Z M 501.023438 585.238281 C 501.164062 584.816406 501.628906 584.589844 502.042969 584.726562 C 502.359375 584.832031 502.570312 585.117188 502.59375 585.433594 C 503.914062 585.328125 505.238281 585.25 506.566406 585.214844 C 511.082031 585.105469 515.230469 585.488281 518.550781 586.609375 C 518.648438 586.339844 518.875 586.125 519.179688 586.078125 C 519.617188 586.023438 520.03125 586.316406 520.097656 586.757812 C 520.121094 586.914062 520.105469 587.066406 520.117188 587.222656 C 520.609375 587.445312 521.078125 587.6875 521.523438 587.953125 C 531.855469 594.148438 513.375 605.269531 502.003906 611.105469 C 523.96875 611.863281 547.128906 614.136719 558.933594 619.890625 C 579.570312 629.953125 556.824219 638.4375 546.011719 641.640625 C 546.25 641.648438 546.484375 641.652344 546.71875 641.660156 C 547.109375 641.671875 547.40625 641.960938 547.472656 642.328125 C 551.792969 641.945312 557.816406 641.53125 564.21875 641.453125 L 591.285156 538.1875 L 598.386719 511.101562 L 587.128906 430.300781 C 587.066406 429.859375 587.375 429.449219 587.816406 429.390625 C 588.246094 429.328125 588.667969 429.636719 588.730469 430.078125 L 599.453125 507.035156 L 611.21875 462.148438 C 614.65625 449.03125 625.703125 439.527344 638.871094 437.800781 L 636.347656 413.839844 C 632.734375 379.585938 602.027344 351.820312 567.761719 351.820312 L 516.703125 350.1875 C 516.832031 350.25 516.953125 350.332031 517.039062 350.464844 L 518.460938 352.632812 L 534.074219 376.417969 C 534.277344 376.730469 534.246094 377.136719 533.996094 377.410156 C 533.746094 377.683594 533.339844 377.75 533.015625 377.574219 L 507.492188 363.886719 L 494.648438 389.5625 C 494.507812 389.84375 494.222656 390.007812 493.925781 390.007812 C 493.804688 390.007812 493.679688 389.980469 493.5625 389.921875 C 493.164062 389.722656 493.003906 389.238281 493.203125 388.839844 L 505.414062 364.433594 L 506.070312 363.121094 L 485.429688 352.050781 C 485.320312 351.992188 485.234375 351.910156 485.167969 351.816406 C 484.984375 351.574219 484.945312 351.242188 485.097656 350.957031 C 485.308594 350.5625 485.804688 350.417969 486.191406 350.628906 L 488.410156 351.816406 L 509.128906 362.929688 L 530.980469 374.648438 L 520.308594 358.394531 L 516.335938 352.339844 L 515.6875 351.351562 C 515.441406 350.976562 515.546875 350.476562 515.917969 350.230469 C 515.96875 350.199219 516.023438 350.1875 516.074219 350.167969 C 516.195312 350.121094 516.316406 350.101562 516.441406 350.113281 L 510.402344 339.707031 C 510.378906 340.121094 510.058594 340.460938 509.640625 340.476562 L 478.867188 341.796875 C 478.851562 341.796875 478.835938 341.796875 478.816406 341.796875 L 478.816406 351.816406 L 479.042969 351.816406 L 480.207031 374.65625 L 480.484375 380.097656 L 480.617188 382.648438 L 491.066406 587.332031 C 494.292969 586.535156 497.582031 585.953125 500.921875 585.605469 C 500.972656 585.410156 501.015625 585.261719 501.023438 585.238281 Z M 406.1875 736.230469 C 400.660156 736.230469 396.164062 740.726562 396.164062 746.25 C 396.164062 751.773438 400.660156 756.269531 406.1875 756.269531 C 411.714844 756.269531 416.210938 751.773438 416.210938 746.25 C 416.210938 740.726562 411.714844 736.230469 406.1875 736.230469 Z M 432.917969 754.6875 L 434.996094 769.453125 L 393.597656 776.375 C 393.597656 776.371094 393.597656 776.371094 393.597656 776.371094 C 393.519531 775.929688 393.09375 775.640625 392.664062 775.710938 L 392.082031 775.8125 L 386.648438 776.75 L 363.222656 642.394531 L 381.390625 640.988281 L 412.488281 638.574219 L 416.488281 638.265625 C 416.507812 638.265625 416.519531 638.253906 416.539062 638.25 Z M 417.828125 746.25 C 417.828125 739.835938 412.605469 734.613281 406.1875 734.613281 C 399.769531 734.613281 394.546875 739.835938 394.546875 746.25 C 394.546875 752.667969 399.769531 757.886719 406.1875 757.886719 C 412.605469 757.886719 417.828125 752.667969 417.828125 746.25 Z M 417.828125 746.25 " fill-opacity="1" fill-rule="nonzero"/></g><path fill="#2b3044" d="M 832.445312 437.492188 L 652.667969 437.492188 C 652.667969 437.9375 652.304688 438.300781 651.859375 438.300781 C 647.402344 438.300781 643.117188 439.226562 639.199219 440.902344 C 630.253906 444.730469 623.261719 452.503906 620.679688 462.351562 L 602.753906 530.742188 L 601.6875 534.804688 L 594.367188 562.730469 L 573.691406 641.628906 C 584.664062 642.207031 594.8125 644.296875 597.46875 649.746094 C 601.550781 658.109375 581.269531 666.335938 565.929688 671.226562 L 564.601562 676.300781 C 570.773438 677.417969 576.621094 680.054688 576.917969 686.019531 C 577.238281 692.457031 568.199219 695.667969 559.105469 697.265625 L 557.566406 703.136719 C 562.738281 705.253906 567.125 708.25 567.1875 712.34375 C 567.242188 715.875 561.28125 719.066406 553.546875 721.726562 C 553.320312 729.085938 555.632812 736.320312 560.261719 742.3125 C 566.410156 750.28125 575.710938 754.847656 585.777344 754.847656 C 586.226562 754.847656 586.585938 755.210938 586.585938 755.65625 L 766.363281 755.65625 C 781.386719 755.65625 794.515625 745.527344 798.324219 731 L 807.289062 696.800781 C 804.976562 696.4375 802.691406 696.03125 800.464844 695.597656 C 798.097656 695.445312 795.660156 695.203125 793.132812 694.84375 C 792.691406 694.777344 792.386719 694.371094 792.449219 693.929688 C 792.453125 693.902344 792.46875 693.878906 792.476562 693.851562 C 785.734375 692.234375 780.039062 690.46875 776.5625 689.003906 C 761.890625 682.820312 761.28125 672.324219 761.28125 672.324219 C 760.894531 672.324219 760.5 672.316406 760.101562 672.300781 C 759.542969 672.300781 759.203125 672.296875 759.164062 672.296875 C 759.085938 672.296875 759.011719 672.269531 758.9375 672.25 C 747.148438 671.527344 731.59375 665.589844 732.496094 657.023438 C 733.273438 649.640625 740.429688 645.886719 743.167969 644.707031 C 743.152344 644.320312 743.402344 643.964844 743.796875 643.886719 C 743.808594 643.882812 743.914062 643.863281 744.078125 643.828125 C 732.347656 610.03125 794.75 604.851562 813.808594 604.058594 C 813.808594 604.050781 813.808594 604.046875 813.808594 604.042969 C 813.796875 603.597656 814.152344 603.226562 814.597656 603.214844 L 818.6875 603.121094 L 810.046875 590.167969 C 809.722656 590.226562 809.40625 590.289062 809.074219 590.339844 C 809.035156 590.347656 808.992188 590.351562 808.949219 590.351562 C 808.558594 590.351562 808.214844 590.066406 808.152344 589.664062 C 808.152344 589.652344 808.15625 589.640625 808.15625 589.628906 C 799.523438 590.554688 754.25 594.753906 750.332031 581.691406 C 745.996094 567.246094 809.402344 552.933594 827.402344 561.46875 C 830.882812 563.121094 834.34375 566.347656 837.613281 570.503906 C 837.628906 570.492188 837.636719 570.472656 837.652344 570.460938 C 838.019531 570.214844 838.523438 570.304688 838.777344 570.675781 L 838.832031 570.757812 L 845.992188 548.058594 L 846.097656 548.730469 L 864.40625 478.890625 C 869.890625 457.957031 854.09375 437.492188 832.445312 437.492188 Z M 564.109375 671.800781 C 560.886719 672.800781 557.96875 673.632812 555.617188 674.273438 L 555.285156 675.539062 C 557.527344 675.542969 560.25 675.660156 562.996094 676.042969 Z M 572.039062 641.546875 L 593.828125 558.421875 L 601.109375 530.644531 L 602.175781 526.578125 L 619.117188 461.941406 C 621.871094 451.433594 629.414062 443.183594 639.023438 439.238281 C 640.828125 438.496094 642.699219 437.914062 644.628906 437.492188 L 643.179688 437.492188 C 641.722656 437.492188 640.289062 437.613281 638.871094 437.800781 C 625.703125 439.527344 614.65625 449.03125 611.21875 462.148438 L 599.453125 507.035156 L 598.386719 511.101562 L 591.285156 538.1875 L 564.21875 641.453125 C 566.796875 641.421875 569.429688 641.445312 572.039062 641.546875 Z M 558.980469 743.300781 C 554.246094 737.167969 551.828125 729.796875 551.925781 722.269531 C 549.421875 723.082031 546.769531 723.835938 544.101562 724.535156 C 545.058594 741.410156 559.035156 755.65625 577.097656 755.65625 L 578.398438 755.65625 C 570.746094 753.96875 563.902344 749.675781 558.980469 743.300781 Z M 557.359375 697.554688 C 554.511719 697.996094 551.722656 698.285156 549.273438 698.480469 L 548.773438 700.378906 C 551.0625 700.929688 553.601562 701.648438 556.050781 702.550781 Z M 557.359375 697.554688 " fill-opacity="1" fill-rule="nonzero"/><path fill="#231f20" d="M 744.078125 643.828125 C 746.925781 643.261719 771.941406 638.363281 796.773438 636.652344 C 807.277344 635.929688 816.320312 635.539062 823.402344 635.328125 C 833.996094 635.011719 840.195312 635.101562 840.296875 635.105469 C 840.742188 635.113281 841.101562 635.480469 841.09375 635.925781 C 841.085938 636.367188 840.722656 636.722656 840.285156 636.722656 C 840.277344 636.722656 840.273438 636.722656 840.269531 636.722656 C 840.167969 636.71875 833.8125 636.625 822.976562 636.957031 C 815.984375 637.171875 807.136719 637.558594 796.882812 638.265625 C 770.75 640.0625 744.382812 645.414062 744.121094 645.46875 C 744.066406 645.480469 744.011719 645.484375 743.957031 645.484375 C 743.582031 645.484375 743.246094 645.222656 743.167969 644.839844 C 743.15625 644.796875 743.167969 644.753906 743.167969 644.707031 C 743.152344 644.320312 743.402344 643.964844 743.796875 643.886719 C 743.808594 643.882812 743.914062 643.863281 744.078125 643.828125 Z M 556.050781 702.550781 C 556.558594 702.738281 557.066406 702.933594 557.566406 703.136719 L 559.105469 697.265625 C 558.523438 697.371094 557.941406 697.464844 557.359375 697.554688 Z M 417.328125 408.886719 C 394.636719 408.886719 374.402344 400.875 361.363281 388.441406 L 361.550781 390.804688 C 374.914062 402.835938 394.953125 410.5 417.328125 410.5 C 444.417969 410.5 468.082031 399.265625 480.617188 382.648438 L 480.484375 380.097656 C 468.613281 397.183594 444.765625 408.886719 417.328125 408.886719 Z M 510.402344 339.707031 C 510.402344 339.683594 510.414062 339.660156 510.414062 339.636719 C 510.398438 339.320312 510.222656 339.054688 509.953125 338.933594 C 509.863281 338.894531 509.761719 338.875 509.648438 338.871094 C 509.621094 338.871094 509.597656 338.859375 509.570312 338.863281 L 486.726562 339.84375 L 478.816406 340.183594 L 478.8125 340.183594 C 476.398438 340.253906 474.09375 340.25 471.839844 340.210938 C 470.78125 340.195312 469.722656 340.175781 468.695312 340.136719 C 466.96875 340.070312 465.300781 339.96875 463.671875 339.84375 C 463.066406 339.796875 462.46875 339.746094 461.875 339.691406 C 460.972656 339.609375 460.085938 339.515625 459.214844 339.417969 C 441.441406 337.390625 429.878906 331.933594 422.632812 326.722656 C 421.195312 325.691406 419.917969 324.667969 418.804688 323.6875 C 413.707031 319.1875 411.84375 315.503906 411.796875 315.40625 C 411.601562 315 411.121094 314.835938 410.71875 315.027344 C 410.683594 315.042969 410.660156 315.074219 410.625 315.097656 C 410.300781 315.316406 410.164062 315.738281 410.339844 316.105469 C 410.539062 316.515625 412.492188 320.390625 417.671875 325.011719 C 418.277344 325.550781 418.933594 326.105469 419.632812 326.660156 C 422.734375 329.140625 426.753906 331.734375 431.921875 334.0625 C 436.121094 335.960938 441.089844 337.675781 446.910156 339.015625 C 451.335938 340.035156 456.265625 340.832031 461.746094 341.316406 C 464.59375 341.570312 467.597656 341.738281 470.75 341.808594 C 471.90625 341.835938 473.058594 341.863281 474.253906 341.863281 C 475.738281 341.863281 477.265625 341.839844 478.816406 341.796875 C 478.832031 341.796875 478.851562 341.796875 478.871094 341.796875 L 509.640625 340.476562 C 510.058594 340.460938 510.378906 340.121094 510.402344 339.707031 Z M 533.996094 377.410156 C 534.246094 377.136719 534.277344 376.730469 534.074219 376.417969 L 518.460938 352.632812 L 517.039062 350.464844 C 516.953125 350.332031 516.832031 350.25 516.703125 350.1875 C 516.617188 350.148438 516.53125 350.125 516.441406 350.113281 C 516.316406 350.101562 516.195312 350.121094 516.074219 350.167969 C 516.023438 350.1875 515.96875 350.199219 515.917969 350.230469 C 515.546875 350.476562 515.441406 350.976562 515.6875 351.351562 L 516.335938 352.339844 L 520.308594 358.394531 L 530.980469 374.648438 L 509.128906 362.929688 L 488.410156 351.816406 L 486.191406 350.628906 C 485.804688 350.417969 485.308594 350.566406 485.097656 350.957031 C 484.945312 351.242188 484.984375 351.574219 485.167969 351.816406 C 485.234375 351.910156 485.320312 351.992188 485.429688 352.050781 L 506.070312 363.121094 L 505.414062 364.433594 L 493.203125 388.839844 C 493.003906 389.238281 493.164062 389.722656 493.5625 389.921875 C 493.679688 389.980469 493.804688 390.007812 493.925781 390.007812 C 494.21875 390.007812 494.507812 389.84375 494.648438 389.5625 L 507.492188 363.886719 L 533.015625 377.574219 C 533.339844 377.75 533.746094 377.683594 533.996094 377.410156 Z M 502.59375 585.433594 C 502.570312 585.117188 502.359375 584.832031 502.042969 584.726562 C 501.628906 584.589844 501.164062 584.816406 501.023438 585.238281 C 501.015625 585.261719 500.972656 585.410156 500.921875 585.605469 C 500.675781 586.539062 500.164062 589.15625 501.453125 591.28125 C 502.308594 592.699219 503.769531 593.585938 505.789062 593.914062 C 506.855469 594.089844 508.023438 594.183594 509.21875 594.183594 C 512.730469 594.183594 516.484375 593.363281 518.585938 591.292969 C 519.722656 590.171875 520.222656 588.765625 520.117188 587.222656 C 520.105469 587.066406 520.121094 586.914062 520.097656 586.757812 C 520.03125 586.316406 519.617188 586.023438 519.179688 586.078125 C 518.875 586.125 518.648438 586.339844 518.550781 586.605469 C 518.503906 586.730469 518.480469 586.859375 518.5 586.996094 C 518.683594 588.230469 518.339844 589.261719 517.445312 590.140625 C 515.414062 592.152344 510.617188 593.066406 506.046875 592.320312 C 504.519531 592.070312 503.441406 591.441406 502.839844 590.453125 C 501.667969 588.527344 502.546875 585.773438 502.554688 585.746094 C 502.589844 585.640625 502.601562 585.535156 502.59375 585.433594 Z M 559.367188 689.890625 C 557.308594 688.777344 556.109375 686.703125 556.109375 683.925781 C 556.109375 679.878906 558.636719 677.320312 562.726562 677.082031 C 562.929688 677.070312 563.121094 677.035156 563.332031 677.035156 C 563.683594 677.035156 564.039062 677.054688 564.394531 677.085938 C 568.980469 677.480469 573.84375 680.328125 573.84375 683.925781 C 573.84375 687.808594 568.191406 690.816406 563.332031 690.816406 C 562.4375 690.816406 561.632812 690.683594 560.882812 690.480469 C 560.339844 690.332031 559.828125 690.140625 559.367188 689.890625 Z M 559.792969 688.269531 C 560.230469 688.554688 560.730469 688.777344 561.289062 688.929688 C 561.90625 689.097656 562.574219 689.203125 563.332031 689.203125 C 567.335938 689.203125 572.226562 686.769531 572.226562 683.925781 C 572.226562 681.238281 567.84375 678.914062 563.976562 678.675781 C 563.761719 678.660156 563.546875 678.652344 563.332031 678.652344 C 562.964844 678.652344 562.628906 678.683594 562.296875 678.726562 C 559.382812 679.074219 557.726562 680.917969 557.726562 683.925781 C 557.726562 685.917969 558.460938 687.390625 559.792969 688.269531 Z M 808.152344 589.664062 C 808.214844 590.066406 808.558594 590.351562 808.949219 590.351562 C 808.992188 590.351562 809.035156 590.347656 809.074219 590.339844 C 809.40625 590.289062 809.722656 590.226562 810.046875 590.167969 C 819.347656 588.492188 824.59375 584.128906 824.820312 583.9375 C 825.15625 583.648438 825.199219 583.140625 824.910156 582.800781 C 824.621094 582.460938 824.113281 582.417969 823.773438 582.707031 C 823.71875 582.75 818.265625 587.289062 808.828125 588.746094 C 808.398438 588.808594 808.109375 589.203125 808.15625 589.628906 C 808.15625 589.640625 808.152344 589.652344 808.152344 589.664062 Z M 767.175781 583.535156 C 763.453125 582.332031 761.730469 580.667969 762.054688 578.59375 C 762.785156 573.9375 775.332031 569.339844 778.621094 569.335938 C 778.625 569.335938 778.625 569.335938 778.628906 569.335938 C 782.976562 569.335938 785.207031 573.296875 785.488281 577.230469 C 785.738281 580.683594 784.503906 584.394531 781.667969 584.800781 C 780.621094 584.949219 779.335938 585.027344 777.929688 585.027344 C 774.5 585.027344 770.351562 584.5625 767.175781 583.535156 Z M 767.671875 581.996094 C 771.925781 583.375 778.007812 583.6875 781.441406 583.199219 C 783.027344 582.972656 784.097656 580.402344 783.878906 577.34375 C 783.664062 574.394531 782.164062 570.949219 778.628906 570.949219 C 778.628906 570.949219 778.625 570.949219 778.625 570.949219 C 775.535156 570.953125 764.1875 575.4375 763.652344 578.84375 C 763.421875 580.300781 765.710938 581.363281 767.671875 581.996094 Z M 841.480469 603.410156 C 841.46875 602.964844 841.109375 602.625 840.652344 602.621094 L 831.921875 602.820312 L 818.6875 603.121094 L 814.597656 603.214844 C 814.152344 603.226562 813.796875 603.597656 813.808594 604.042969 C 813.808594 604.046875 813.808594 604.050781 813.808594 604.058594 C 813.828125 604.488281 814.179688 604.832031 814.613281 604.832031 C 814.621094 604.832031 814.628906 604.832031 814.632812 604.832031 L 831.496094 604.449219 L 840.691406 604.238281 C 841.136719 604.226562 841.488281 603.855469 841.480469 603.410156 Z M 252.109375 168.394531 C 252.109375 167.875 252.75 117.144531 304.261719 113.597656 C 304.25 113.058594 304.222656 112.523438 304.222656 111.980469 C 304.222656 79.308594 330.714844 52.828125 363.398438 52.828125 C 368.976562 52.828125 374.367188 53.617188 379.484375 55.058594 C 353.097656 39.542969 324.90625 61.285156 324.597656 61.527344 C 324.449219 61.644531 324.273438 61.699219 324.097656 61.699219 C 323.859375 61.699219 323.625 61.59375 323.464844 61.390625 C 323.1875 61.042969 323.25 60.535156 323.597656 60.257812 C 323.929688 59.996094 356.570312 34.800781 385.1875 56.984375 C 385.542969 57.125 385.902344 57.257812 386.25 57.40625 C 394.570312 32.804688 417.832031 15.085938 445.25 15.085938 C 466.128906 15.085938 484.597656 25.367188 495.898438 41.136719 C 499.300781 38.265625 520.253906 22.554688 549.769531 42.304688 C 550.140625 42.550781 550.238281 43.054688 549.988281 43.425781 C 549.835938 43.65625 549.578125 43.785156 549.316406 43.785156 C 549.164062 43.785156 549.007812 43.738281 548.867188 43.648438 C 523.039062 26.363281 504.546875 36.648438 498.570312 41.054688 C 504.316406 38.796875 510.566406 37.539062 517.113281 37.539062 C 545.085938 37.539062 567.761719 60.207031 567.761719 88.167969 C 567.761719 88.867188 567.734375 89.558594 567.707031 90.25 C 588.667969 96.453125 603.964844 115.832031 603.964844 138.792969 C 603.964844 153.035156 598.070312 165.898438 588.601562 175.097656 C 588.789062 175.367188 588.976562 175.636719 589.160156 175.910156 C 593.425781 177.863281 601.28125 183.441406 601.761719 198.144531 C 601.777344 198.589844 601.425781 198.964844 600.980469 198.976562 C 600.96875 198.976562 600.960938 198.976562 600.953125 198.976562 C 600.519531 198.976562 600.160156 198.632812 600.144531 198.195312 C 599.765625 186.605469 594.746094 181.121094 590.816406 178.585938 C 595.144531 186.042969 597.632812 194.695312 597.632812 203.9375 C 597.632812 224.695312 585.128906 242.527344 567.242188 250.339844 C 570.058594 256.640625 571.636719 263.613281 571.636719 270.960938 C 571.636719 292.398438 558.296875 310.710938 539.46875 318.09375 C 543.625 311.460938 546.160156 303.691406 546.476562 295.332031 L 548.039062 254.535156 L 548.367188 246.039062 L 548.039062 246.015625 C 548.214844 240.3125 548.367188 234.371094 548.5 228.460938 C 548.828125 213.726562 549.046875 199.226562 549.265625 189.242188 C 549.269531 189.078125 549.273438 188.902344 549.277344 188.738281 C 549.574219 175.585938 548.234375 163.828125 545.628906 153.34375 C 545.613281 153.273438 545.597656 153.207031 545.578125 153.136719 C 545.585938 153.210938 545.59375 153.269531 545.597656 153.34375 C 546.144531 159.628906 546.453125 170.382812 544.238281 183.132812 C 544.167969 183.527344 543.828125 183.804688 543.441406 183.804688 C 543.394531 183.804688 543.347656 183.796875 543.300781 183.789062 C 542.863281 183.714844 542.566406 183.296875 542.644531 182.855469 C 544.84375 170.199219 544.523438 159.558594 543.980469 153.40625 C 543.882812 152.289062 543.777344 151.3125 543.679688 150.507812 C 539.128906 152.234375 530.90625 152.894531 518.585938 144.980469 C 515.765625 143.164062 513.015625 140.886719 510.386719 138.335938 C 507.921875 135.9375 505.5625 133.300781 503.34375 130.578125 C 499.570312 125.945312 496.210938 121.074219 493.464844 116.734375 C 489.667969 110.742188 487.035156 105.777344 486.066406 103.898438 C 486.09375 104.015625 486.101562 104.136719 486.070312 104.261719 C 486.023438 104.457031 485.75 105.574219 485.210938 107.265625 C 484.589844 110.601562 483.113281 115.433594 479.582031 119.871094 C 479.316406 120.316406 479.039062 120.757812 478.753906 121.203125 C 475.40625 126.4375 470.746094 131.519531 464.441406 134.164062 C 461.515625 135.394531 458.425781 136.007812 455.1875 136.007812 C 449.226562 136.007812 442.761719 133.925781 435.867188 129.773438 C 435.484375 129.542969 435.363281 129.042969 435.589844 128.664062 C 435.820312 128.28125 436.316406 128.152344 436.699219 128.386719 C 446.871094 134.515625 455.996094 135.957031 463.816406 132.675781 C 467.6875 131.050781 470.921875 128.394531 473.601562 125.34375 C 471.71875 126.59375 469.554688 127.710938 467.046875 128.609375 C 443.339844 137.078125 429.472656 116.570312 429.472656 116.570312 C 429.472656 116.570312 430.570312 125.46875 428.851562 137.398438 C 427.726562 145.234375 425.382812 154.375 420.710938 163.171875 C 412.6875 178.269531 392.09375 186.691406 385.140625 189.171875 C 384.679688 189.339844 384.273438 189.480469 383.9375 189.59375 C 382.816406 188.65625 381.128906 187.324219 379.027344 185.871094 C 378.410156 185.449219 377.757812 185.015625 377.074219 184.578125 C 373.652344 182.394531 369.445312 180.160156 364.925781 178.785156 C 357.210938 176.433594 348.613281 176.605469 341.582031 183.914062 C 339.957031 185.601562 338.425781 187.707031 336.996094 190.210938 L 361.378906 197.101562 L 371.175781 199.871094 L 373.1875 200.441406 L 378.242188 201.867188 L 380.039062 202.375 C 380.082031 202.386719 380.113281 202.417969 380.152344 202.433594 C 380.507812 202.597656 380.707031 202.988281 380.597656 203.375 C 380.496094 203.730469 380.175781 203.960938 379.820312 203.960938 C 379.746094 203.960938 379.671875 203.953125 379.601562 203.929688 L 379.476562 203.894531 L 377.664062 203.382812 L 375.335938 202.726562 L 370.34375 201.316406 L 361.140625 198.714844 L 336.351562 191.707031 C 336.300781 191.695312 336.265625 191.664062 336.222656 191.644531 C 331.78125 200.890625 335.300781 215.644531 346.933594 223.515625 C 348.257812 224.414062 349.695312 225.214844 351.234375 225.914062 C 351.953125 226.207031 354.855469 227.324219 358.589844 228.113281 C 359.160156 228.234375 359.746094 228.347656 360.347656 228.449219 C 361.191406 228.589844 362.058594 228.699219 362.941406 228.78125 C 364.542969 228.890625 366.210938 228.902344 367.945312 228.8125 L 366.652344 234.644531 L 366.128906 236.996094 L 365.121094 241.546875 L 364.546875 244.128906 L 358.59375 270.960938 L 358.605469 294.585938 L 358.621094 326.648438 L 350.097656 326.648438 C 344.554688 326.648438 339.222656 328.316406 334.699219 331.292969 C 325.0625 323.101562 318.09375 311.878906 315.257812 299.101562 C 290.339844 292.128906 272.054688 269.28125 272.054688 242.144531 C 272.054688 232.078125 274.578125 222.597656 279.019531 214.296875 C 267.492188 203.503906 260.28125 188.164062 260.28125 171.132812 C 260.28125 145.875 276.121094 124.328125 298.40625 115.84375 C 254.320312 122.488281 253.726562 166.421875 253.726562 168.394531 C 253.726562 168.839844 253.363281 169.203125 252.917969 169.203125 C 252.472656 169.203125 252.109375 168.839844 252.109375 168.394531 Z M 485.652344 103.371094 C 485.75 103.421875 485.832031 103.484375 485.898438 103.566406 C 485.746094 103.265625 485.65625 103.085938 485.65625 103.085938 C 485.65625 103.085938 485.65625 103.191406 485.652344 103.371094 Z M 563.722656 626.179688 C 563.722656 630.417969 557.527344 633.703125 552.199219 633.703125 C 547.332031 633.703125 544.308594 630.820312 544.308594 626.179688 C 544.308594 621.539062 547.332031 618.65625 552.199219 618.65625 C 557.527344 618.65625 563.722656 621.941406 563.722656 626.179688 Z M 562.105469 626.179688 C 562.105469 623 556.660156 620.273438 552.199219 620.273438 C 548.210938 620.273438 545.925781 622.425781 545.925781 626.179688 C 545.925781 629.933594 548.210938 632.089844 552.199219 632.089844 C 556.660156 632.089844 562.105469 629.363281 562.105469 626.179688 Z M 565.929688 671.226562 C 565.316406 671.421875 564.707031 671.617188 564.109375 671.800781 L 562.996094 676.042969 C 563.53125 676.121094 564.066406 676.203125 564.601562 676.300781 Z M 766.527344 618.902344 C 766.5625 618.902344 766.597656 618.90625 766.628906 618.90625 C 771.6875 618.949219 774.765625 623.199219 775.195312 627.378906 C 775.632812 631.617188 773.484375 634.878906 769.726562 635.695312 C 768.289062 636.003906 766.078125 636.160156 763.855469 636.160156 C 761.640625 636.160156 759.410156 636.003906 757.925781 635.695312 C 751.898438 634.429688 751.320312 631.265625 751.511719 629.492188 C 752.0625 624.414062 759.898438 618.902344 766.527344 618.902344 Z M 753.121094 629.664062 C 752.828125 632.390625 755.753906 633.585938 758.257812 634.113281 C 761.007812 634.6875 766.722656 634.691406 769.386719 634.113281 C 772.90625 633.351562 773.851562 630.097656 773.589844 627.546875 C 773.230469 624.082031 770.722656 620.554688 766.617188 620.519531 C 766.585938 620.519531 766.550781 620.519531 766.519531 620.519531 C 760.230469 620.519531 753.546875 625.730469 753.121094 629.664062 Z M 587.816406 429.390625 C 587.375 429.449219 587.066406 429.859375 587.128906 430.300781 L 598.386719 511.101562 L 599.453125 507.035156 L 588.730469 430.078125 C 588.667969 429.636719 588.246094 429.328125 587.816406 429.390625 Z M 469.359375 205.753906 C 469.191406 209.59375 471.171875 212.796875 473.789062 212.914062 C 476.402344 213.027344 478.65625 210.007812 478.824219 206.171875 C 478.992188 202.332031 477.011719 199.128906 474.398438 199.011719 C 471.78125 198.898438 469.527344 201.917969 469.359375 205.753906 Z M 552.714844 715.4375 C 550.046875 714.894531 548.4375 712.9375 548.4375 710.03125 C 548.4375 706.589844 550.671875 704.453125 554.273438 704.453125 C 554.6875 704.453125 555.105469 704.484375 555.527344 704.539062 C 556.0625 704.605469 556.59375 704.710938 557.117188 704.855469 C 560.078125 705.667969 562.691406 707.644531 562.691406 710.03125 C 562.691406 713.15625 558.210938 715.578125 554.332031 715.605469 C 554.3125 715.605469 554.292969 715.605469 554.273438 715.605469 C 553.714844 715.605469 553.203125 715.539062 552.714844 715.4375 Z M 553.082031 713.867188 C 553.453125 713.941406 553.84375 713.992188 554.273438 713.992188 C 554.425781 713.992188 554.578125 713.964844 554.730469 713.957031 C 557.894531 713.78125 561.074219 711.867188 561.074219 710.03125 C 561.074219 708.582031 559.097656 707.070312 556.707031 706.414062 C 556.191406 706.269531 555.652344 706.183594 555.113281 706.128906 C 554.832031 706.101562 554.550781 706.070312 554.273438 706.070312 C 551.589844 706.070312 550.054688 707.511719 550.054688 710.03125 C 550.054688 712.144531 551.148438 713.488281 553.082031 713.867188 Z M 804.714844 437.492188 L 807.78125 430.625 C 809.136719 427.59375 806.917969 424.171875 803.59375 424.171875 L 781.183594 424.171875 C 784.78125 412.089844 777.898438 402.296875 765.8125 402.296875 C 753.726562 402.296875 741.015625 412.089844 737.421875 424.171875 L 706.355469 424.171875 C 704.546875 424.171875 702.90625 425.234375 702.167969 426.886719 L 697.429688 437.492188 Z M 591.683594 651.03125 C 591.683594 654.882812 586.074219 657.871094 581.25 657.871094 C 576.824219 657.871094 574.078125 655.25 574.078125 651.03125 C 574.078125 646.808594 576.824219 644.1875 581.25 644.1875 C 586.074219 644.1875 591.683594 647.175781 591.683594 651.03125 Z M 590.066406 651.03125 C 590.066406 648.214844 585.21875 645.804688 581.25 645.804688 C 577.71875 645.804688 575.691406 647.707031 575.691406 651.03125 C 575.691406 654.351562 577.71875 656.257812 581.25 656.257812 C 585.21875 656.257812 590.066406 653.84375 590.066406 651.03125 Z M 585.777344 754.847656 C 575.710938 754.847656 566.410156 750.28125 560.261719 742.3125 C 555.632812 736.320312 553.320312 729.085938 553.546875 721.722656 C 553.011719 721.910156 552.476562 722.089844 551.925781 722.269531 C 551.828125 729.796875 554.246094 737.167969 558.980469 743.300781 C 563.902344 749.675781 570.746094 753.96875 578.398438 755.65625 C 580.789062 756.183594 583.261719 756.464844 585.777344 756.464844 C 586.226562 756.464844 586.585938 756.101562 586.585938 755.65625 C 586.585938 755.210938 586.226562 754.847656 585.777344 754.847656 Z M 767.828125 663.167969 C 765.925781 664.246094 761.550781 664.976562 757.007812 664.976562 C 752.183594 664.976562 747.167969 664.152344 744.722656 662.046875 C 742.128906 659.816406 742.222656 657.847656 742.757812 656.585938 C 745.128906 650.996094 761.101562 648.160156 764.832031 648.488281 C 767.730469 648.753906 769.785156 650.722656 770.472656 653.886719 C 771.269531 657.578125 770.03125 661.914062 767.828125 663.167969 Z M 768.890625 654.230469 C 768.515625 652.484375 767.480469 650.351562 764.6875 650.097656 C 764.488281 650.082031 764.265625 650.074219 764.015625 650.074219 C 759.429688 650.074219 746.035156 652.992188 744.246094 657.214844 C 744.070312 657.628906 743.535156 658.894531 745.777344 660.820312 C 749.925781 664.390625 763.601562 663.710938 767.027344 661.761719 C 768.4375 660.964844 769.582031 657.425781 768.890625 654.230469 Z M 651.859375 436.683594 C 649.386719 436.683594 646.972656 436.980469 644.628906 437.492188 C 642.699219 437.914062 640.828125 438.496094 639.023438 439.238281 C 629.414062 443.183594 621.871094 451.433594 619.117188 461.941406 L 602.175781 526.578125 L 601.109375 530.644531 L 593.828125 558.421875 L 572.039062 641.546875 C 572.59375 641.570312 573.140625 641.597656 573.691406 641.628906 L 594.367188 562.730469 L 601.6875 534.804688 L 602.753906 530.742188 L 620.679688 462.351562 C 623.261719 452.503906 630.253906 444.730469 639.199219 440.902344 C 643.117188 439.226562 647.402344 438.300781 651.859375 438.300781 C 652.304688 438.300781 652.667969 437.9375 652.667969 437.492188 C 652.667969 437.046875 652.304688 436.683594 651.859375 436.683594 Z M 848.816406 585.445312 L 839.910156 572.34375 L 838.832031 570.757812 L 838.777344 570.675781 C 838.523438 570.304688 838.019531 570.214844 837.652344 570.460938 C 837.636719 570.472656 837.628906 570.492188 837.613281 570.503906 C 837.285156 570.761719 837.199219 571.230469 837.441406 571.585938 L 838.214844 572.722656 L 839.367188 574.417969 L 846.6875 585.1875 L 847.480469 586.355469 C 847.636719 586.582031 847.890625 586.707031 848.148438 586.707031 C 848.308594 586.707031 848.464844 586.664062 848.605469 586.566406 C 848.972656 586.316406 849.066406 585.8125 848.816406 585.445312 Z M 841.019531 686.269531 C 840.871094 686.359375 828.460938 693.777344 807.980469 694.160156 C 803.480469 694.242188 798.597656 693.992188 793.363281 693.242188 C 792.953125 693.183594 792.574219 693.453125 792.476562 693.851562 C 792.46875 693.878906 792.453125 693.902344 792.449219 693.929688 C 792.386719 694.371094 792.691406 694.777344 793.132812 694.84375 C 795.660156 695.203125 798.097656 695.445312 800.464844 695.59375 C 802.472656 695.726562 804.429688 695.792969 806.316406 695.792969 C 806.742188 695.792969 807.140625 695.769531 807.558594 695.765625 C 828.757812 695.464844 841.710938 687.742188 841.867188 687.644531 C 842.246094 687.414062 842.367188 686.914062 842.132812 686.535156 C 841.902344 686.15625 841.40625 686.035156 841.019531 686.269531 Z M 794.03125 688.058594 C 793.40625 688.226562 792.269531 688.355469 790.875 688.355469 C 788.011719 688.355469 784.046875 687.8125 781.121094 685.957031 C 777.570312 683.703125 777.429688 681.625 777.933594 680.277344 C 779.464844 676.179688 789.175781 673.949219 791.808594 674.347656 C 794.957031 674.824219 796.28125 678.59375 796.457031 681.679688 C 796.617188 684.480469 795.929688 687.539062 794.03125 688.058594 Z M 794.84375 681.769531 C 794.6875 679.09375 793.613281 676.257812 791.5625 675.945312 C 791.398438 675.917969 791.199219 675.90625 790.976562 675.90625 C 788.019531 675.90625 780.488281 678.066406 779.445312 680.84375 C 779.019531 681.988281 779.875 683.25 781.988281 684.589844 C 785.675781 686.929688 791.800781 686.988281 793.605469 686.496094 C 794.308594 686.304688 794.988281 684.316406 794.84375 681.769531 Z M 840.417969 666.871094 C 840.859375 666.796875 841.15625 666.378906 841.082031 665.941406 C 841.003906 665.5 840.582031 665.214844 840.148438 665.277344 C 832.0625 666.648438 823.34375 667.671875 814.722656 668.441406 C 791.570312 670.5 769.144531 670.691406 761.738281 670.691406 C 760.066406 670.691406 759.226562 670.6875 759.175781 670.679688 C 758.734375 670.679688 758.371094 671.035156 758.367188 671.480469 C 758.363281 671.84375 758.605469 672.144531 758.9375 672.25 C 759.011719 672.269531 759.085938 672.296875 759.164062 672.296875 C 759.203125 672.296875 759.542969 672.300781 760.101562 672.300781 C 760.515625 672.304688 761.042969 672.304688 761.726562 672.304688 C 769.09375 672.304688 791.265625 672.117188 814.285156 670.101562 C 823.136719 669.328125 832.109375 668.28125 840.417969 666.871094 Z M 519.105469 205.753906 C 518.9375 209.59375 520.921875 212.796875 523.535156 212.914062 C 526.148438 213.027344 528.40625 210.007812 528.574219 206.171875 C 528.742188 202.332031 526.757812 199.128906 524.144531 199.011719 C 521.53125 198.898438 519.273438 201.917969 519.105469 205.753906 Z M 344.601562 357.28125 L 346.175781 356.101562 L 351.6875 351.988281 C 351.753906 351.941406 351.796875 351.878906 351.839844 351.816406 C 352.023438 351.574219 352.050781 351.257812 351.914062 350.984375 C 351.890625 350.941406 351.882812 350.894531 351.851562 350.855469 C 351.585938 350.5 351.078125 350.425781 350.722656 350.691406 L 350.308594 351 L 349.214844 351.816406 L 345.269531 354.765625 L 344.601562 355.261719 L 335.3125 362.199219 L 330.417969 365.851562 L 303.949219 385.609375 L 314.945312 359.574219 L 316.917969 354.898438 L 318.21875 351.816406 L 318.269531 351.703125 C 318.3125 351.597656 318.332031 351.488281 318.332031 351.378906 C 318.328125 351.066406 318.144531 350.773438 317.835938 350.644531 C 317.664062 350.570312 317.480469 350.578125 317.3125 350.625 C 317.082031 350.6875 316.878906 350.835938 316.777344 351.074219 L 316.640625 351.398438 L 316.59375 351.511719 L 316.464844 351.816406 L 314.882812 355.566406 L 313.445312 358.96875 L 301.304688 387.726562 C 301.160156 388.0625 301.261719 388.449219 301.550781 388.675781 C 301.835938 388.898438 302.238281 388.902344 302.53125 388.6875 L 331.832031 366.8125 L 334.257812 369.976562 L 348.472656 388.53125 C 348.632812 388.738281 348.871094 388.847656 349.117188 388.847656 C 349.289062 388.847656 349.460938 388.792969 349.605469 388.679688 C 349.960938 388.410156 350.027344 387.902344 349.757812 387.546875 L 334.5625 367.71875 L 334.359375 367.449219 L 333.128906 365.84375 L 335.007812 364.441406 Z M 392.664062 775.710938 L 392.082031 775.8125 L 386.648438 776.75 L 363.222656 642.394531 L 381.390625 640.988281 L 412.488281 638.574219 L 416.488281 638.265625 C 416.507812 638.265625 416.519531 638.253906 416.539062 638.25 C 416.957031 638.191406 417.265625 637.824219 417.230469 637.398438 C 417.199219 636.953125 416.832031 636.617188 416.363281 636.652344 L 415.894531 636.691406 L 381.261719 639.375 L 362.242188 640.851562 C 362.222656 640.851562 362.203125 640.855469 362.183594 640.855469 L 297.519531 645.871094 L 297.320312 642.628906 L 291.835938 553.121094 L 302.84375 491.222656 C 302.921875 490.78125 302.628906 490.363281 302.191406 490.285156 C 301.742188 490.207031 301.332031 490.5 301.253906 490.9375 L 291.414062 546.253906 L 287.191406 477.339844 C 287.164062 476.898438 286.757812 476.554688 286.335938 476.585938 C 285.890625 476.613281 285.550781 476.996094 285.578125 477.441406 L 290.210938 553.082031 C 290.210938 553.113281 290.214844 553.140625 290.21875 553.171875 L 295.898438 645.871094 L 261.484375 643.566406 C 261.058594 643.535156 260.652344 643.875 260.621094 644.320312 C 260.59375 644.765625 260.929688 645.152344 261.375 645.179688 L 292.042969 647.234375 L 247.285156 659.882812 C 246.855469 660.003906 246.601562 660.453125 246.726562 660.882812 C 246.847656 661.3125 247.296875 661.566406 247.722656 661.4375 L 296.902344 647.539062 L 361.605469 642.523438 L 385.058594 777.023438 L 247.144531 800.859375 L 220.28125 805.503906 L 219.09375 805.707031 L 217.191406 806.035156 C 216.75 806.113281 216.457031 806.53125 216.53125 806.96875 C 216.601562 807.363281 216.941406 807.640625 217.328125 807.640625 C 217.371094 807.640625 217.421875 807.636719 217.464844 807.628906 L 219.09375 807.347656 L 220.070312 807.179688 L 386.101562 778.484375 C 386.121094 778.484375 386.136719 778.480469 386.15625 778.476562 L 392.210938 777.429688 L 392.9375 777.304688 C 393.378906 777.226562 393.671875 776.8125 393.597656 776.375 C 393.597656 776.371094 393.597656 776.371094 393.597656 776.371094 C 393.519531 775.929688 393.09375 775.640625 392.664062 775.710938 Z M 505 198.804688 C 504.886719 198.375 504.449219 198.117188 504.015625 198.226562 C 503.582031 198.339844 503.324219 198.78125 503.4375 199.214844 L 509.308594 221.699219 L 514.703125 242.351562 C 514.796875 242.714844 515.125 242.953125 515.484375 242.953125 C 515.550781 242.953125 515.621094 242.945312 515.6875 242.929688 C 516.121094 242.816406 516.378906 242.375 516.265625 241.941406 L 510.886719 221.34375 Z M 552.820312 675.582031 C 552.875 675.472656 552.914062 675.359375 552.917969 675.234375 C 552.921875 675.152344 552.898438 675.082031 552.878906 675.007812 C 552.792969 674.667969 552.503906 674.410156 552.136719 674.398438 C 525.308594 673.476562 498.050781 678.378906 497.777344 678.429688 C 497.339844 678.507812 497.046875 678.929688 497.128906 679.367188 C 497.199219 679.757812 497.539062 680.03125 497.921875 680.03125 C 497.96875 680.03125 498.019531 680.027344 498.070312 680.019531 C 498.339844 679.96875 525.429688 675.113281 552.082031 676.015625 C 552.40625 676.039062 552.683594 675.851562 552.820312 675.582031 Z M 417.828125 746.25 C 417.828125 752.667969 412.605469 757.886719 406.1875 757.886719 C 399.769531 757.886719 394.546875 752.667969 394.546875 746.25 C 394.546875 739.835938 399.769531 734.613281 406.1875 734.613281 C 412.605469 734.613281 417.828125 739.835938 417.828125 746.25 Z M 416.210938 746.25 C 416.210938 740.726562 411.714844 736.230469 406.1875 736.230469 C 400.660156 736.230469 396.164062 740.726562 396.164062 746.25 C 396.164062 751.773438 400.660156 756.269531 406.1875 756.269531 C 411.714844 756.269531 416.210938 751.773438 416.210938 746.25 Z M 542.875 698.34375 C 524.777344 695.058594 508.5625 699.667969 508.398438 699.714844 C 507.972656 699.839844 507.722656 700.289062 507.847656 700.71875 C 507.953125 701.070312 508.273438 701.300781 508.625 701.300781 C 508.699219 701.300781 508.773438 701.289062 508.851562 701.265625 C 509.007812 701.222656 524.851562 696.714844 542.585938 699.933594 C 542.996094 700.007812 543.445312 699.722656 543.527344 699.28125 C 543.527344 699.28125 543.527344 699.277344 543.527344 699.277344 C 543.554688 699.109375 543.519531 698.953125 543.453125 698.808594 C 543.347656 698.574219 543.144531 698.390625 542.875 698.34375 Z M 546.667969 643.273438 C 547.058594 643.304688 547.484375 642.941406 547.5 642.492188 C 547.503906 642.433594 547.484375 642.382812 547.472656 642.328125 C 547.40625 641.960938 547.109375 641.671875 546.71875 641.660156 C 546.484375 641.652344 546.25 641.648438 546.011719 641.640625 C 523.203125 640.945312 500.277344 644.378906 494.03125 645.402344 C 492.992188 645.574219 492.398438 645.679688 492.359375 645.6875 C 491.921875 645.765625 491.632812 646.1875 491.710938 646.625 C 491.78125 647.015625 492.121094 647.289062 492.503906 647.289062 C 492.554688 647.289062 492.601562 647.285156 492.652344 647.277344 C 492.6875 647.269531 493.203125 647.179688 494.113281 647.027344 C 500.089844 646.042969 523.535156 642.496094 546.667969 643.273438 Z M 500.40625 611.914062 C 500.589844 611.902344 500.753906 611.882812 500.9375 611.871094 C 501.292969 611.851562 501.570312 611.601562 501.660156 611.277344 C 501.675781 611.21875 501.683594 611.15625 501.6875 611.09375 C 501.6875 611.066406 501.699219 611.046875 501.699219 611.019531 C 501.671875 610.574219 501.265625 610.230469 500.84375 610.257812 C 498.441406 610.394531 496.191406 610.613281 494.085938 610.890625 C 493.464844 610.976562 492.878906 611.070312 492.28125 611.164062 C 478.992188 613.222656 472.152344 617.613281 471.816406 617.835938 C 471.445312 618.082031 471.339844 618.582031 471.585938 618.957031 C 471.742188 619.191406 472 619.320312 472.261719 619.320312 C 472.414062 619.320312 472.570312 619.277344 472.707031 619.183594 C 472.785156 619.132812 479.496094 614.839844 492.367188 612.792969 C 494.824219 612.402344 497.5 612.09375 500.40625 611.914062 Z M 533.378906 170.828125 C 533.78125 170.828125 534.128906 170.519531 534.167969 170.109375 C 534.210938 169.671875 533.890625 169.285156 533.453125 169.242188 L 512.816406 167.25 C 512.378906 167.210938 511.992188 167.527344 511.949219 167.964844 C 511.90625 168.402344 512.226562 168.789062 512.664062 168.832031 L 533.300781 170.824219 C 533.324219 170.828125 533.351562 170.828125 533.378906 170.828125 Z M 479.621094 167.925781 C 479.554688 167.488281 479.152344 167.203125 478.71875 167.257812 L 455.832031 170.695312 C 455.398438 170.761719 455.101562 171.167969 455.164062 171.601562 C 455.222656 171.996094 455.5625 172.277344 455.949219 172.277344 C 455.988281 172.277344 456.027344 172.273438 456.070312 172.269531 L 478.953125 168.828125 C 479.386719 168.761719 479.6875 168.359375 479.621094 167.925781 Z M 479.621094 167.925781 " fill-opacity="1" fill-rule="nonzero"/></svg>