<svg xmlns="http://www.w3.org/2000/svg" viewBox="0 0 500 500"><g id="freepik--background-complete--inject-31"><rect y="382.4" width="500" height="0.25" style="fill:#ebebeb"></rect><rect x="416.78" y="398.49" width="33.12" height="0.25" style="fill:#ebebeb"></rect><rect x="322.53" y="401.21" width="8.69" height="0.25" style="fill:#ebebeb"></rect><rect x="396.59" y="389.21" width="19.19" height="0.25" style="fill:#ebebeb"></rect><rect x="52.46" y="390.89" width="43.19" height="0.25" style="fill:#ebebeb"></rect><rect x="104.56" y="390.89" width="6.33" height="0.25" style="fill:#ebebeb"></rect><rect x="131.47" y="395.11" width="93.68" height="0.25" style="fill:#ebebeb"></rect><path d="M237,337.8H43.91a5.71,5.71,0,0,1-5.7-5.71V60.66A5.71,5.71,0,0,1,43.91,55H237a5.71,5.71,0,0,1,5.71,5.71V332.09A5.71,5.71,0,0,1,237,337.8ZM43.91,55.2a5.46,5.46,0,0,0-5.45,5.46V332.09a5.46,5.46,0,0,0,5.45,5.46H237a5.47,5.47,0,0,0,5.46-5.46V60.66A5.47,5.47,0,0,0,237,55.2Z" style="fill:#ebebeb"></path><path d="M453.31,337.8H260.21a5.72,5.72,0,0,1-5.71-5.71V60.66A5.72,5.72,0,0,1,260.21,55h193.1A5.71,5.71,0,0,1,459,60.66V332.09A5.71,5.71,0,0,1,453.31,337.8ZM260.21,55.2a5.47,5.47,0,0,0-5.46,5.46V332.09a5.47,5.47,0,0,0,5.46,5.46h193.1a5.47,5.47,0,0,0,5.46-5.46V60.66a5.47,5.47,0,0,0-5.46-5.46Z" style="fill:#ebebeb"></path><circle cx="313.93" cy="106.27" r="23.55" transform="translate(16.8 253.11) rotate(-45)" style="fill:#e0e0e0"></circle><circle cx="313.93" cy="106.27" r="20.03" transform="translate(-6.8 189.8) rotate(-33.3)" style="fill:#f0f0f0"></circle><polyline points="314.87 92.54 314.87 106.54 324.15 101.29" style="fill:#f0f0f0"></polyline><path d="M314.87,107.54a1,1,0,0,1-1-1v-14a1,1,0,0,1,2,0v12.28l7.79-4.4a1,1,0,0,1,1.36.37,1,1,0,0,1-.38,1.37l-9.28,5.25A1.05,1.05,0,0,1,314.87,107.54Z" style="fill:#e0e0e0"></path><rect x="82.51" y="123.6" width="138.15" height="123.66" style="fill:#e6e6e6"></rect><rect x="86.82" y="128.5" width="128.81" height="114.12" style="fill:#f0f0f0"></rect><polygon points="128.78 128.5 105.56 242.62 93.68 242.62 116.84 128.5 128.78 128.5" style="fill:#fafafa"></polygon><polygon points="138.61 128.5 115.41 242.62 111.03 242.62 134.24 128.5 138.61 128.5" style="fill:#fafafa"></polygon><polygon points="190.68 158.55 173.59 242.62 169.21 242.62 190.68 137.03 190.68 158.55" style="fill:#fafafa"></polygon><polygon points="177.35 128.5 189.13 128.5 166.1 242.62 154.16 242.62 177.35 128.5" style="fill:#fafafa"></polygon><rect x="148.62" y="123.6" width="3.02" height="123.66" style="fill:#e6e6e6"></rect><rect x="361.37" y="87.57" width="66.63" height="40.93" style="fill:#e6e6e6"></rect><rect x="366.13" y="91.3" width="57.11" height="33.46" style="fill:#fafafa"></rect><rect x="372.07" y="97.63" width="45.22" height="1.49" style="fill:#e6e6e6"></rect><rect x="372.07" y="102.57" width="45.22" height="1.49" style="fill:#e6e6e6"></rect><rect x="372.07" y="112.01" width="45.22" height="1.49" style="fill:#e6e6e6"></rect><rect x="372.07" y="116.95" width="45.22" height="1.49" style="fill:#e6e6e6"></rect></g><g id="freepik--Shadow--inject-31"><ellipse id="freepik--path--inject-31" cx="250" cy="416.24" rx="193.89" ry="11.32" style="fill:#f5f5f5"></ellipse></g><g id="freepik--Furniture--inject-31"><path d="M343.69,202.87s-1.3,4.68,0,6.33c.59.74,4,1,4.87.41,1.66-1.08,1.2-5.85,1.2-5.85Z" style="fill:#263238"></path><path d="M385.86,205.22s-29.13,3.05-45.56,0a27.29,27.29,0,0,1,1.44-6.09h0a5.46,5.46,0,0,1,.46-.84,4,4,0,0,1,1.52-1.2l.44-.21a18.73,18.73,0,0,1,4.3-1.17h0s2.57-5.42,2.72-5.58c1.53-1.75,25.11-1.16,27.74,1.67.56.6,3,4.4,3,4.4s3.7-.2,4,.63C386.81,199.12,385.86,205.22,385.86,205.22Z" style="fill:#407BFF"></path><path d="M349.26,195.76a157,157,0,0,1,17.66.51s.09-4.15.24-4.69-7.92-1.26-9.34-1.23a41.52,41.52,0,0,0-6.67.37A19.2,19.2,0,0,0,349.26,195.76Z" style="fill:#fff"></path><path d="M370.6,206.36c0,2.23-1.34,4-3,4s-3-1.81-3-4,1.34-4,3-4S370.6,204.13,370.6,206.36Z" style="fill:#263238"></path><path d="M370.06,206.2c0,1.35-.81,2.44-1.8,2.44s-1.81-1.09-1.81-2.44.81-2.44,1.81-2.44S370.06,204.85,370.06,206.2Z" style="fill:#fff;opacity:0.2"></path><path d="M364.66,205.77c-.39.75-2.71.79-2.71.79s.12,2.28,1.54,3.28,4.13.56,4.13.56Z" style="fill:#263238"></path><path d="M384.4,205.72c0,2.23-1.33,4-3,4s-3-1.8-3-4,1.33-4,3-4S384.4,203.49,384.4,205.72Z" style="fill:#263238"></path><path d="M383.87,205.56c0,1.35-.81,2.44-1.81,2.44s-1.8-1.09-1.8-2.44.81-2.44,1.8-2.44S383.87,204.21,383.87,205.56Z" style="fill:#fff;opacity:0.2"></path><path d="M378.47,205.12c-.39.76-2.72.8-2.72.8s.12,2.28,1.55,3.28,4.12.55,4.12.55Z" style="fill:#263238"></path><path d="M340.59,203.37l-.86.77s.31,3.53.86,3.7,17,1.38,18.58,1.17a13.51,13.51,0,0,0,4.11-1.1c.48-.36,0-3.21,0-3.21a56.72,56.72,0,0,1-9,.87c-3.72-.08-12.21-.14-12.81-.87A6.63,6.63,0,0,1,340.59,203.37Z" style="fill:#407BFF"></path><path d="M366.88,196.53c-6.07.28-8.68,2.88-8.68,2.88s-14.07,0-14.27-.85a3.3,3.3,0,0,1,.23-1.68,18.73,18.73,0,0,1,4.3-1.17c-2,.66-2.23,1.38-2.23,1.38a6,6,0,0,1,2.43-1C353.83,195.7,366.88,196.53,366.88,196.53Z" style="fill:#fff;opacity:0.2"></path><path d="M368.26,196s0-3.89.31-4.16a16.49,16.49,0,0,1,4.53-.26c.45.14,1.3,4.42,1.3,4.42Z" style="fill:#fff"></path><path d="M375.34,196l-1.14-4.42s4.43,0,4.78.52,2.44,4.17,2.44,4.17Z" style="fill:#fff"></path><path d="M340.59,203.37l-.86.77s.31,3.53.86,3.7,17,1.38,18.58,1.17a13.51,13.51,0,0,0,4.11-1.1c.48-.36,0-3.21,0-3.21a56.72,56.72,0,0,1-9,.87c-3.72-.08-12.21-.14-12.81-.87A6.63,6.63,0,0,1,340.59,203.37Z" style="fill:#fff;opacity:0.7000000000000001"></path><path d="M342.58,200.7c-.05.25-.2.44-.34.41s-.21-.26-.16-.51.2-.43.34-.4S342.63,200.45,342.58,200.7Z" style="fill:#fff"></path><polygon points="343.89 200.21 343.24 205.13 356.46 205.56 357.82 200.65 343.89 200.21" style="fill:#fff;opacity:0.4"></polygon><polygon points="357.18 205.38 361.8 204.94 362.77 199.02 358.98 199.38 357.18 205.38" style="fill:#407BFF"></polygon><path d="M357.18,205.38l4.62-.44c.57-2.3,1.56-5.14,1-5.92a4.34,4.34,0,0,0-3.79.36C358.39,200.31,357.78,203,357.18,205.38Z" style="fill:#fff;opacity:0.7000000000000001"></path><path d="M360.64,203.69a.83.83,0,1,1-.82-.82A.82.82,0,0,1,360.64,203.69Z" style="fill:#fff"></path><path d="M360.9,201.5a.47.47,0,0,1-.46.47.47.47,0,1,1,.46-.47Z" style="fill:#fff"></path><path d="M340.76,203.69l.7,1,1.31.38c.38-2.41,1.15-5.67.66-6.21s-.72-.75-1.23-.58l-.46.84A16,16,0,0,0,340.76,203.69Z" style="fill:#fff;opacity:0.7000000000000001"></path><path d="M342.52,203c0,.45-.26.81-.52.79s-.43-.41-.4-.86.27-.81.52-.79S342.56,202.55,342.52,203Z" style="fill:#fff"></path><polygon points="384.62 203.69 384.93 206.2 387.05 206.2 387.25 203.76 384.62 203.69" style="fill:#407BFF"></polygon><polygon points="384.62 203.69 384.93 206.2 387.05 206.2 387.25 203.76 384.62 203.69" style="fill:#fff;opacity:0.7000000000000001"></polygon><polygon points="283.53 385.78 284.1 398.09 287.83 398.09 287.83 388.69 283.53 385.78" style="fill:#263238"></polygon><polygon points="413.49 385.78 414.06 398.09 417.79 398.09 417.79 388.69 413.49 385.78" style="fill:#263238"></polygon><rect x="280.81" y="209.69" width="141.11" height="179.55" style="fill:#263238"></rect><rect x="280.81" y="209.69" width="141.11" height="179.55" style="fill:#fff;opacity:0.6000000000000001"></rect><polygon points="431.82 385.78 432.39 398.09 436.11 398.09 436.11 388.69 431.82 385.78" style="fill:#263238"></polygon><rect x="285.68" y="215.37" width="64.23" height="168.06" style="fill:#263238"></rect><rect x="285.68" y="215.37" width="64.23" height="168.06" style="fill:#fff;opacity:0.5"></rect><rect x="353.56" y="215.37" width="64.23" height="168.06" style="fill:#263238"></rect><rect x="353.56" y="215.37" width="64.23" height="168.06" style="fill:#fff;opacity:0.5"></rect><path d="M341,294.14h0a1.26,1.26,0,0,0,1.35-1.17v-8.06a1.27,1.27,0,0,0-1.35-1.17h0a1.27,1.27,0,0,0-1.35,1.17V293A1.26,1.26,0,0,0,341,294.14Z" style="fill:#e0e0e0"></path><path d="M362.72,294.14h0a1.26,1.26,0,0,0,1.35-1.17v-8.06a1.27,1.27,0,0,0-1.35-1.17h0a1.27,1.27,0,0,0-1.35,1.17V293A1.26,1.26,0,0,0,362.72,294.14Z" style="fill:#e0e0e0"></path><rect x="421.92" y="209.69" width="19.79" height="179.55" style="fill:#263238"></rect><rect x="421.92" y="209.69" width="19.79" height="179.55" style="fill:#fff;opacity:0.4"></rect><polygon points="422.4 206.66 422.4 209.21 390.38 209.21 390.38 206.66 398.5 203.44 414.28 203.44 422.4 206.66" style="fill:#263238"></polygon><polygon points="422.4 206.66 422.4 206.68 390.38 206.68 390.38 206.66 398.5 203.44 414.28 203.44 422.4 206.66" style="fill:#fff;opacity:0.2"></polygon><path d="M405.74,169.2c2.39-.24,1.58-2.24,2.57-3.56s3.49-1.41,4,1.32,0,9.74-6,10-6.57-8.8-6.57-8.8S401.67,169.62,405.74,169.2Z" style="fill:#407BFF"></path><path d="M405.74,169.2c2.39-.24,1.58-2.24,2.57-3.56s3.49-1.41,4,1.32,0,9.74-6,10-6.57-8.8-6.57-8.8S401.67,169.62,405.74,169.2Z" style="fill:#fff;opacity:0.5"></path><path d="M412.19,166.53s1.68.35,1.77.85-1.77.9-1.77.9-1.31-.6-1.31-.88S412.19,166.53,412.19,166.53Z" style="fill:#407BFF"></path><path d="M410.24,166.73a.38.38,0,0,1-.38.38.39.39,0,1,1,0-.77A.38.38,0,0,1,410.24,166.73Z" style="fill:#407BFF"></path><path d="M417.21,205.17H395.43a2.4,2.4,0,0,1-2.39-2.39h0a2.4,2.4,0,0,1,2.39-2.39h21.78a2.4,2.4,0,0,1,2.39,2.39h0A2.4,2.4,0,0,1,417.21,205.17Z" style="fill:#407BFF"></path><path d="M415.53,200.4H397.11a2.4,2.4,0,0,1-2.39-2.39h0a2.39,2.39,0,0,1,2.39-2.39h18.42a2.4,2.4,0,0,1,2.39,2.39h0A2.4,2.4,0,0,1,415.53,200.4Z" style="fill:#263238"></path><path d="M413.84,195.62h-15a2.39,2.39,0,0,1-2.39-2.39h0a2.4,2.4,0,0,1,2.39-2.39h15a2.4,2.4,0,0,1,2.4,2.39h0A2.4,2.4,0,0,1,413.84,195.62Z" style="fill:#407BFF"></path><path d="M412.16,190.85h-11.7a2.4,2.4,0,0,1-2.39-2.39h0a2.4,2.4,0,0,1,2.39-2.39h11.7a2.39,2.39,0,0,1,2.39,2.39h0A2.4,2.4,0,0,1,412.16,190.85Z" style="fill:#263238"></path><path d="M410.48,186.07h-8.34a2.4,2.4,0,0,1-2.39-2.39h0a2.4,2.4,0,0,1,2.39-2.39h8.34a2.4,2.4,0,0,1,2.39,2.39h0A2.39,2.39,0,0,1,410.48,186.07Z" style="fill:#407BFF"></path><path d="M408.8,181.3h-5a2.4,2.4,0,0,1-2.39-2.39h0a2.39,2.39,0,0,1,2.39-2.39h5a2.39,2.39,0,0,1,2.39,2.39h0A2.4,2.4,0,0,1,408.8,181.3Z" style="fill:#263238"></path><path d="M415.53,200.4H397.11a2.4,2.4,0,0,1-2.39-2.39h0a2.39,2.39,0,0,1,2.39-2.39h18.42a2.4,2.4,0,0,1,2.39,2.39h0A2.4,2.4,0,0,1,415.53,200.4Z" style="fill:#fff;opacity:0.2"></path><path d="M413.84,195.62h-15a2.39,2.39,0,0,1-2.39-2.39h0a2.4,2.4,0,0,1,2.39-2.39h15a2.4,2.4,0,0,1,2.4,2.39h0A2.4,2.4,0,0,1,413.84,195.62Z" style="fill:#fff;opacity:0.2"></path><path d="M412.16,190.85h-11.7a2.4,2.4,0,0,1-2.39-2.39h0a2.4,2.4,0,0,1,2.39-2.39h11.7a2.39,2.39,0,0,1,2.39,2.39h0A2.4,2.4,0,0,1,412.16,190.85Z" style="fill:#fff;opacity:0.4"></path><path d="M410.48,186.07h-8.34a2.4,2.4,0,0,1-2.39-2.39h0a2.4,2.4,0,0,1,2.39-2.39h8.34a2.4,2.4,0,0,1,2.39,2.39h0A2.39,2.39,0,0,1,410.48,186.07Z" style="fill:#fff;opacity:0.4"></path><path d="M408.8,181.3h-5a2.4,2.4,0,0,1-2.39-2.39h0a2.39,2.39,0,0,1,2.39-2.39h5a2.39,2.39,0,0,1,2.39,2.39h0A2.4,2.4,0,0,1,408.8,181.3Z" style="fill:#fff;opacity:0.6000000000000001"></path><rect x="330.84" y="186.04" width="11.37" height="15.96" rx="2.09" transform="translate(661.09 -19.42) rotate(116.71)" style="fill:#407BFF"></rect><rect x="330.84" y="186.04" width="11.37" height="15.96" rx="2.09" transform="translate(661.09 -19.42) rotate(116.71)" style="fill:#fff;opacity:0.2"></rect><rect x="334.62" y="183.71" width="6.16" height="15.96" rx="2.09" transform="translate(660.71 -23.84) rotate(116.71)" style="fill:#fff;opacity:0.2"></rect><path d="M343.78,192.14c.09-.17.63-1.24.71-1.41.27-.52-.53-1.45-1.76-2.07s-2.45-.7-2.71-.19c-.09.17-.63,1.25-.71,1.42-.26.51.53,1.44,1.76,2.06S343.52,192.66,343.78,192.14Z" style="fill:#407BFF"></path><path d="M343.78,192.14c.09-.17.63-1.24.71-1.41.27-.52-.53-1.45-1.76-2.07s-2.45-.7-2.71-.19c-.09.17-.63,1.25-.71,1.42-.26.51.53,1.44,1.76,2.06S343.52,192.66,343.78,192.14Z" style="fill:#fff;opacity:0.1"></path><path d="M341.78,190.54c-1.23-.62-2-1.55-1.76-2.07s1.47-.43,2.71.19,2,1.55,1.76,2.07S343,191.16,341.78,190.54Z" style="fill:#fff;opacity:0.2"></path><path d="M338.19,189.32l.71-1.41c.26-.52-.53-1.44-1.77-2.06s-2.45-.71-2.71-.19c-.08.17-.62,1.24-.71,1.41-.26.52.53,1.44,1.77,2.07S337.93,189.84,338.19,189.32Z" style="fill:#407BFF"></path><path d="M338.19,189.32l.71-1.41c.26-.52-.53-1.44-1.77-2.06s-2.45-.71-2.71-.19c-.08.17-.62,1.24-.71,1.41-.26.52.53,1.44,1.77,2.07S337.93,189.84,338.19,189.32Z" style="fill:#fff;opacity:0.1"></path><path d="M336.19,187.73c-1.24-.63-2-1.55-1.77-2.07s1.48-.44,2.71.19,2,1.54,1.77,2.06S337.42,188.35,336.19,187.73Z" style="fill:#fff;opacity:0.2"></path><path d="M342.14,195.4l.71-1.41c.27-.52-.53-1.45-1.76-2.07s-2.45-.71-2.71-.19c-.09.17-.63,1.25-.71,1.42-.26.51.53,1.44,1.76,2.06S341.88,195.92,342.14,195.4Z" style="fill:#407BFF"></path><path d="M342.14,195.4l.71-1.41c.27-.52-.53-1.45-1.76-2.07s-2.45-.71-2.71-.19c-.09.17-.63,1.25-.71,1.42-.26.51.53,1.44,1.76,2.06S341.88,195.92,342.14,195.4Z" style="fill:#fff;opacity:0.1"></path><path d="M340.14,193.8c-1.23-.62-2-1.55-1.76-2.07s1.47-.43,2.71.19,2,1.55,1.76,2.07S341.38,194.42,340.14,193.8Z" style="fill:#fff;opacity:0.2"></path><path d="M336.55,192.58c.08-.17.62-1.24.71-1.41.26-.52-.53-1.44-1.77-2.06s-2.45-.71-2.71-.19c-.08.17-.62,1.24-.71,1.41-.26.52.53,1.44,1.77,2.07S336.29,193.1,336.55,192.58Z" style="fill:#407BFF"></path><path d="M336.55,192.58c.08-.17.62-1.24.71-1.41.26-.52-.53-1.44-1.77-2.06s-2.45-.71-2.71-.19c-.08.17-.62,1.24-.71,1.41-.26.52.53,1.44,1.77,2.07S336.29,193.1,336.55,192.58Z" style="fill:#fff;opacity:0.1"></path><path d="M334.55,191c-1.24-.62-2-1.54-1.77-2.06s1.48-.44,2.71.19,2,1.54,1.77,2.06S335.78,191.61,334.55,191Z" style="fill:#fff;opacity:0.2"></path><rect x="316.33" y="193.66" width="15.96" height="15.96" rx="2.83" style="fill:#263238"></rect><rect x="316.33" y="193.66" width="15.96" height="15.96" rx="2.83" style="fill:#fff;opacity:0.30000000000000004"></rect><rect x="316.33" y="193.66" width="11.36" height="15.96" rx="2.83" style="fill:#fff;opacity:0.2"></rect><path d="M318.71,196h-1.9a2.59,2.59,0,0,0,0,5h1.9a2.58,2.58,0,0,0,0-5Z" style="fill:#263238"></path><path d="M318.71,196h-1.9a2.59,2.59,0,0,0,0,5h1.9a2.58,2.58,0,0,0,0-5Z" style="fill:#fff;opacity:0.2"></path><path d="M318.75,198.51a2,2,0,1,1-1.94-2.51A2.28,2.28,0,0,1,318.75,198.51Z" style="fill:#fff;opacity:0.2"></path><path d="M318.71,202.26h-1.9a2.59,2.59,0,0,0,0,5h1.9a2.58,2.58,0,0,0,0-5Z" style="fill:#263238"></path><path d="M318.71,202.26h-1.9a2.59,2.59,0,0,0,0,5h1.9a2.58,2.58,0,0,0,0-5Z" style="fill:#fff;opacity:0.2"></path><path d="M318.75,204.77a2,2,0,1,1-1.94-2.51A2.28,2.28,0,0,1,318.75,204.77Z" style="fill:#fff;opacity:0.2"></path><path d="M324.44,196h-1.91a2.59,2.59,0,0,0,0,5h1.91a2.59,2.59,0,0,0,0-5Z" style="fill:#263238"></path><path d="M324.44,196h-1.91a2.59,2.59,0,0,0,0,5h1.91a2.59,2.59,0,0,0,0-5Z" style="fill:#fff;opacity:0.2"></path><path d="M324.47,198.51a2,2,0,1,1-1.94-2.51A2.28,2.28,0,0,1,324.47,198.51Z" style="fill:#fff;opacity:0.2"></path><path d="M324.44,202.26h-1.91a2.59,2.59,0,0,0,0,5h1.91a2.59,2.59,0,0,0,0-5Z" style="fill:#263238"></path><path d="M324.44,202.26h-1.91a2.59,2.59,0,0,0,0,5h1.91a2.59,2.59,0,0,0,0-5Z" style="fill:#fff;opacity:0.2"></path><path d="M324.47,204.77a2,2,0,1,1-1.94-2.51A2.28,2.28,0,0,1,324.47,204.77Z" style="fill:#fff;opacity:0.2"></path><rect x="332.59" y="195.95" width="11.37" height="15.96" rx="2.09" transform="translate(542.21 -134.35) rotate(90)" style="fill:#407BFF"></rect><rect x="332.59" y="195.95" width="11.37" height="15.96" rx="2.09" transform="translate(542.21 -134.35) rotate(90)" style="fill:#fff;opacity:0.6000000000000001"></rect><rect x="335.2" y="193.34" width="6.16" height="15.96" rx="2.09" transform="translate(539.6 -136.96) rotate(90)" style="fill:#fff;opacity:0.2"></rect><path d="M343.92,199v-1.58c0-.58-1.13-1-2.51-1s-2.51.47-2.51,1V199c0,.58,1.13,1,2.51,1S343.92,199.57,343.92,199Z" style="fill:#407BFF"></path><path d="M343.92,199v-1.58c0-.58-1.13-1-2.51-1s-2.51.47-2.51,1V199c0,.58,1.13,1,2.51,1S343.92,199.57,343.92,199Z" style="fill:#fff;opacity:0.5"></path><ellipse cx="341.41" cy="197.41" rx="2.51" ry="1.05" style="fill:#fff;opacity:0.2"></ellipse><path d="M337.65,199v-1.58c0-.58-1.12-1-2.5-1s-2.51.47-2.51,1V199c0,.58,1.12,1,2.51,1S337.65,199.57,337.65,199Z" style="fill:#407BFF"></path><path d="M337.65,199v-1.58c0-.58-1.12-1-2.5-1s-2.51.47-2.51,1V199c0,.58,1.12,1,2.51,1S337.65,199.57,337.65,199Z" style="fill:#fff;opacity:0.5"></path><path d="M335.15,198.46c-1.39,0-2.51-.47-2.51-1.05s1.12-1,2.51-1,2.5.47,2.5,1S336.53,198.46,335.15,198.46Z" style="fill:#fff;opacity:0.2"></path><path d="M343.92,202.64v-1.58c0-.58-1.13-1.05-2.51-1.05s-2.51.47-2.51,1.05v1.58c0,.58,1.13,1.05,2.51,1.05S343.92,203.22,343.92,202.64Z" style="fill:#407BFF"></path><path d="M343.92,202.64v-1.58c0-.58-1.13-1.05-2.51-1.05s-2.51.47-2.51,1.05v1.58c0,.58,1.13,1.05,2.51,1.05S343.92,203.22,343.92,202.64Z" style="fill:#fff;opacity:0.5"></path><ellipse cx="341.41" cy="201.06" rx="2.51" ry="1.05" style="fill:#fff;opacity:0.2"></ellipse><path d="M337.65,202.64v-1.58c0-.58-1.12-1.05-2.5-1.05s-2.51.47-2.51,1.05v1.58c0,.58,1.12,1.05,2.51,1.05S337.65,203.22,337.65,202.64Z" style="fill:#407BFF"></path><path d="M337.65,202.64v-1.58c0-.58-1.12-1.05-2.5-1.05s-2.51.47-2.51,1.05v1.58c0,.58,1.12,1.05,2.51,1.05S337.65,203.22,337.65,202.64Z" style="fill:#fff;opacity:0.5"></path><path d="M335.15,202.11c-1.39,0-2.51-.47-2.51-1.05s1.12-1.05,2.51-1.05,2.5.47,2.5,1.05S336.53,202.11,335.15,202.11Z" style="fill:#fff;opacity:0.2"></path></g><g id="freepik--Table--inject-31"><rect x="208.72" y="289.18" width="196.31" height="6.76" style="fill:#407BFF"></rect><polygon points="405.03 295.94 208.72 295.94 208.72 289.18 405.03 289.18 405.03 295.94 405.03 295.94" style="fill:#fff;isolation:isolate;opacity:0.6000000000000001"></polygon><rect x="208.72" y="289.18" width="196.31" height="3.38" style="isolation:isolate;opacity:0.2"></rect><path d="M408.68,290.06H205.06a2,2,0,0,1-2.08-1.91h0a2,2,0,0,1,2.08-1.9H408.68a2,2,0,0,1,2.08,1.9h0A2,2,0,0,1,408.68,290.06Z" style="fill:#407BFF"></path><path d="M408.68,290.06H205.06a2,2,0,0,1-2.08-1.91h0a2,2,0,0,1,2.08-1.9H408.68a2,2,0,0,1,2.08,1.9h0A2,2,0,0,1,408.68,290.06Z" style="fill:#fff;isolation:isolate;opacity:0.6000000000000001"></path><rect x="208.64" y="295.95" width="9.06" height="120.29" style="fill:#407BFF"></rect><rect x="208.64" y="295.86" width="9.06" height="120.38" style="fill:#fff;opacity:0.5"></rect><rect x="208.64" y="295.86" width="9.06" height="16.34" style="opacity:0.2"></rect><rect x="395.97" y="295.95" width="9.06" height="120.29" style="fill:#407BFF"></rect><rect x="395.97" y="295.86" width="9.06" height="120.38" style="fill:#fff;opacity:0.5"></rect><rect x="395.97" y="295.86" width="9.06" height="16.34" style="opacity:0.2"></rect><rect x="279.34" y="295.95" width="9.06" height="120.29" style="fill:#407BFF"></rect><rect x="279.34" y="295.86" width="9.06" height="120.38" style="fill:#fff;opacity:0.5"></rect><rect x="279.34" y="295.86" width="9.06" height="23.66" style="opacity:0.2"></rect></g><g id="freepik--character-2--inject-31"><g id="freepik--group--inject-31"><polygon points="223.58 314.26 227.77 315.26 229.88 309.48 231.8 304.21 227.03 302.19 225.2 308.57 223.58 314.26" style="fill:#e4897b"></polygon><path d="M228.79,315c.1-.46-5.66-1.46-5.66-1.46s-4.35,2.72-7.93,2.7-2.17,2.48,1.62,3.39l9.38,2.24C228.89,322.49,227.76,319.8,228.79,315Z" style="fill:#263238"></path><path d="M219.32,314a.57.57,0,0,1,0-.64.64.64,0,0,1,.4-.31,2.4,2.4,0,0,1,1.3.17c-.4-.36-.73-.76-.68-1.06s.2-.33.49-.39a.93.93,0,0,1,.74.16c.69.5.85,1.94.86,2a.15.15,0,0,1,0,.07l0,0,0,0h0l-.05,0a10.24,10.24,0,0,1-1.84.22A1.51,1.51,0,0,1,219.32,314Zm.49-.65a.32.32,0,0,0-.21.16c-.11.21,0,.28,0,.31.21.28,1.33.22,2.25.06A3.81,3.81,0,0,0,219.81,313.35Zm1.09-1.27c-.08,0-.23.06-.25.14,0,.26.66.89,1.43,1.41a2.58,2.58,0,0,0-.68-1.45.6.6,0,0,0-.36-.12Z" style="fill:#263238"></path><polygon points="271.48 323.71 275.37 321.85 273.37 316.02 271.54 310.73 266.56 312.16 269.16 318.27 271.48 323.71" style="fill:#e4897b"></polygon><path d="M276,321c-.21-.42-5.32,2.44-5.32,2.44s-1.66,4.84-4.45,7.09-.13,3.29,3.38,1.61l8.7-4.17C280.79,326.76,278.21,325.38,276,321Z" style="fill:#263238"></path><path d="M268,326.19a.57.57,0,0,1-.39-.5.62.62,0,0,1,.11-.5,2.41,2.41,0,0,1,1.11-.69c-.53,0-1-.12-1.19-.39s0-.38.14-.61a.88.88,0,0,1,.67-.34c.85-.05,1.88,1,1.93,1l0,.06v.1h0l0,.05a9.71,9.71,0,0,1-1.29,1.33A1.52,1.52,0,0,1,268,326.19Zm0-.82a.32.32,0,0,0-.06.26c0,.23.13.25.17.26.34.08,1.17-.67,1.79-1.37A3.81,3.81,0,0,0,268,325.37Zm0-1.67c0,.06-.14.19-.1.26.13.23,1.08.28,2,.2a2.61,2.61,0,0,0-1.45-.7.63.63,0,0,0-.35.13Z" style="fill:#263238"></path><path d="M250.87,212.1l-4.48-4s.54-1.24-1-1.88-10.81-.1-10.81-.1,1,3.9,1.86,4.86,8,.19,8,.19l3.66,3.69Z" style="fill:#ebb376"></path><path d="M245.42,214l.6.7c2.36,2.69,11.19,12.57,19.36,18.47a31.06,31.06,0,0,0,6.47,3.76l1.55-2.75,4.14-7.27c-10.05-2.54-24.22-13.85-27.56-16.59-.47-.38-.72-.6-.72-.6Z" style="fill:#407BFF"></path><path d="M265.38,233.21a31.06,31.06,0,0,0,6.47,3.76l1.55-2.75A22.39,22.39,0,0,0,265.38,233.21Z" style="isolation:isolate;opacity:0.2"></path><path d="M245.42,214l.6.7,4-4.38c-.47-.38-.72-.6-.72-.6Z" style="fill:#fff;opacity:0.6000000000000001"></path><path d="M328.12,221.21l5.36-2.75s-.22-1.33,1.47-1.56,10.49,2.63,10.49,2.63-1.92,3.53-3,4.24-7.82-1.85-7.82-1.85l-4.47,2.65Z" style="fill:#ebb376"></path><path d="M332.91,224.46l-.76.52c-2.95,2-14,9.35-23.39,13a31,31,0,0,1-7.2,2l-.82-3.05-2.16-8.08c10.36.08,26.92-7.3,30.85-9.11l.85-.4Z" style="fill:#407BFF"></path><path d="M332.91,224.46l-.76.52-2.72-5.23.85-.4Z" style="fill:#fff;opacity:0.6000000000000001"></path><path d="M264.53,266.57l36.9,2.22c.06-.5.13-1,.18-1.5a167,167,0,0,0,1-19.37c0-3.87-.16-7.39-.31-10.27-.26-4.84-.59-7.9-.59-7.9s-5.1-2.95-16.33-3.25a38.09,38.09,0,0,0-9.87.86,6.18,6.18,0,0,0-4.72,6.08c.07,8.62-3.17,21.93-5,28.76C265,264.89,264.53,266.57,264.53,266.57Z" style="fill:#407BFF"></path><path d="M302.57,247.92c0-3.87-.06-5.17-.21-8-.71-.28-1.59-2.7-2.43-2.77C299.93,237.1,298.66,244.45,302.57,247.92Z" style="isolation:isolate;opacity:0.2"></path><path d="M293.17,228.24s-1.75-1.84-7.07-1.12a40.43,40.43,0,0,0-7.4,1.48s-.95,4.25,3.85,5.3S294.37,229.43,293.17,228.24Z" style="fill:#fff;opacity:0.6000000000000001"></path><path d="M264.53,266.57l36.9,2.22c.06-.5.13-1,.18-1.5l-35.86-5.09C265,264.89,264.53,266.57,264.53,266.57Z" style="fill:#fff;opacity:0.6000000000000001"></path><path d="M277.12,242c0-3.36.41-7.88,2.11-7.75s1.65,4.19,1.31,7.48a18,18,0,0,1,3.66.8c.06-3.32.46-7.55,2.1-7.43,2,.15,1.58,5.63,1.13,9,7.17,4.93,4.15,15.13-6.84,13.39C268.54,255.57,270.56,244.17,277.12,242Z" style="fill:#fff;opacity:0.4"></path><path d="M279.68,241.53s.38-4.85-.48-5-1,5.11-1,5.11Z" style="isolation:isolate;opacity:0.2"></path><path d="M285.09,242.56s.14-5.33,1-5.46.3,6.33.3,6.33Z" style="isolation:isolate;opacity:0.2"></path><path d="M277,246.8a.73.73,0,1,0,.66-.8A.73.73,0,0,0,277,246.8Z" style="isolation:isolate;opacity:0.2"></path><path d="M284.27,248.08a.67.67,0,0,0,.73.6.67.67,0,1,0-.13-1.33A.66.66,0,0,0,284.27,248.08Z" style="isolation:isolate;opacity:0.2"></path><polygon points="281.82 248.98 280.73 248.66 281.05 249.9 281.82 248.98" style="isolation:isolate;opacity:0.2"></polygon><path d="M281.29,224a5.08,5.08,0,0,1-.51,3.89,7,7,0,0,1-.4.6,7,7,0,0,1-.75.83,4,4,0,0,0,2.93,3.52c5.86,1.31,9.38-3.75,9.38-3.75a9.45,9.45,0,0,1-1.53-7.58,12.76,12.76,0,0,1,1.47-3.79l-8.41,2.14-3.82,1A8.37,8.37,0,0,1,281.29,224Z" style="fill:#ebb376"></path><path d="M281.29,224a5.08,5.08,0,0,1-.51,3.89,7,7,0,0,1-.4.6c4.66-.33,8.21-4.37,10-7a12.76,12.76,0,0,1,1.47-3.79l-8.41,2.14-3.82,1A8.37,8.37,0,0,1,281.29,224Z" style="isolation:isolate;opacity:0.2"></path><path d="M282.21,195s-10.47,4.63-3.13,14.86C287.38,221.36,282.21,195,282.21,195Z" style="fill:#263238"></path><path d="M299.6,212.32c-2.3,6.44-8,12.68-13.77,12.14-10.5-1-13.88-4-12.9-11.73.84-7,6.16-16.86,15-16.5S302.81,203.39,299.6,212.32Z" style="fill:#ebb376"></path><path d="M280,199.05a18.91,18.91,0,0,0,9.53,3.29s3.81,1.77,1.68,6,2.42,8.18.95,14.19c0,0,6.43,1,11.05-11.8,3.36-9.32-3.87-15.32-12.4-17.53C283.66,191.39,277.21,195.1,280,199.05Z" style="fill:#263238"></path><path d="M284.07,210c-.27.82-.93,1.36-1.47,1.17s-.75-1-.49-1.81.92-1.35,1.47-1.18S284.33,209.19,284.07,210Z" style="fill:#263238"></path><path d="M277.57,207.56c-.25.79-.89,1.3-1.4,1.13s-.73-.95-.47-1.74.88-1.29,1.4-1.13S277.82,206.77,277.57,207.56Z" style="fill:#263238"></path><path d="M283,205.1a.48.48,0,0,1-.07-.23.4.4,0,0,1,.44-.34,3.8,3.8,0,0,1,3,2,.38.38,0,0,1-.18.52h0a.42.42,0,0,1-.52-.18h0a3,3,0,0,0-2.41-1.51A.47.47,0,0,1,283,205.1Z" style="fill:#263238"></path><path d="M276.51,203.37a.46.46,0,0,1-.17-.17.41.41,0,0,1,.23-.51,3.85,3.85,0,0,1,3.55.29.39.39,0,0,1,.09.55h0a.39.39,0,0,1-.54.09h0a3.07,3.07,0,0,0-2.84-.18A.45.45,0,0,1,276.51,203.37Z" style="fill:#263238"></path><path d="M278.55,208.93l-.27,3.79a4.63,4.63,0,0,1-2.58-1A11,11,0,0,0,278.55,208.93Z" style="fill:#d58745"></path><path d="M291.08,214.23s2.94-3.5,4.63-1.61-.72,8.47-3.8,7.54S289,216,291.08,214.23Z" style="fill:#ebb376"></path><path d="M277.29,215.1a22.36,22.36,0,0,1,.65,3.08l.55,0c2.52,0,3.7-.77,4.24-1.68a3.48,3.48,0,0,0,.37-2.36,11.72,11.72,0,0,1-5,.94C277.62,215.11,277.29,215.1,277.29,215.1Z" style="fill:#263238"></path><path d="M278.15,215.1l.21.9c2.37,0,4-.26,4.8-1a3.29,3.29,0,0,0-.06-.88A11.72,11.72,0,0,1,278.15,215.1Z" style="fill:#fff"></path><path d="M278.49,218.2c2.52,0,3.7-.77,4.24-1.68a7.9,7.9,0,0,0-2.8.5A3,3,0,0,0,278.49,218.2Z" style="fill:#de5753"></path><path d="M282.05,196.06c-3.82-.15-3.84,4.55.45,6.39l-.89-1.64s3,3.12,6.43,2.66a3.77,3.77,0,0,1-1.73-3.12A4.61,4.61,0,0,0,282.05,196.06Z" style="fill:#263238"></path><path d="M224,310.3l5.07,3.16s6.53-12.26,11.57-20.95c.1-.18.2-.37.31-.55,3.65-6.3,14.32-5.61,14.32-5.61L270,320.79l5-1.67-3.61-30s20.56-.11,27-3,3.08-17.26,3.08-17.26c-13.44-2.63-35.91-5.74-35.91-5.74-11,.22-25.39,5.28-29.89,12.56C229.54,285.46,224,310.3,224,310.3Z" style="fill:#263238"></path><path d="M240.59,292.51c.1-.18.2-.37.31-.55,3.65-6.3,14.32-5.61,14.32-5.61s-2.52-7.33-.63-12.27,21-7.16,21-7.16S258,266.61,249.24,271C243.08,274.12,241.17,285.87,240.59,292.51Z" style="isolation:isolate;opacity:0.2"></path></g></g><g id="freepik--Plant--inject-31"><path d="M86,324.43c.21,1.47-3.77,2.43-7,3,.26,2.67,2,5.36,4.49,7.88,3.09-1.74,7.49-4,8.3-3.47s-3.62,3.53-6.44,5.24a57.06,57.06,0,0,0,6.39,4.84c1.38-1.29,3-2.42,4-1.81s.73,2.63.24,4.42c3.36,2,5.87,3.15,5.87,3.15a67.5,67.5,0,0,0,2.24-9.53c-.17-.34-.34-.68-.49-1-.54-1.25,0-1.79.88-2a32.91,32.91,0,0,0,0-6.87c-3.79-.79-8.41-2.27-6.68-4.55,1-1.37,3-1.53,4.94-1.18a8.61,8.61,0,0,0-.94-1.28c-6.92-7.62-11.74,0-11.74,0-4-3.35-9.66-2.44-10.88,2.79C81.38,323.47,85.69,322.61,86,324.43Z" style="fill:#407BFF"></path><path d="M86,324.43c.21,1.47-3.77,2.43-7,3,.26,2.67,2,5.36,4.49,7.88,3.09-1.74,7.49-4,8.3-3.47s-3.62,3.53-6.44,5.24a57.06,57.06,0,0,0,6.39,4.84c1.38-1.29,3-2.42,4-1.81s.73,2.63.24,4.42c3.36,2,5.87,3.15,5.87,3.15a67.5,67.5,0,0,0,2.24-9.53c-.17-.34-.34-.68-.49-1-.54-1.25,0-1.79.88-2a32.91,32.91,0,0,0,0-6.87c-3.79-.79-8.41-2.27-6.68-4.55,1-1.37,3-1.53,4.94-1.18a8.61,8.61,0,0,0-.94-1.28c-6.92-7.62-11.74,0-11.74,0-4-3.35-9.66-2.44-10.88,2.79C81.38,323.47,85.69,322.61,86,324.43Z" style="fill:#fff;isolation:isolate;opacity:0.30000000000000004"></path><path d="M94.58,380.41l-1-.08c0-.51,4.1-51.52-7.35-56.33a3.88,3.88,0,0,0-3.47.08c-4.14,2.16-6.12,11.09-6.14,11.18l-1-.22c.09-.38,2.11-9.47,6.66-11.84a4.88,4.88,0,0,1,4.32-.12C98.73,328.16,94.76,378.28,94.58,380.41Z" style="fill:#407BFF"></path><path d="M96,379.31c-.2-2.3-4.87-56.27,3.87-62,2.09-1.37,4-1.67,5.54-.86,4.13,2.08,4.68,10.91,4.7,11.28l-1,.06c0-.09-.53-8.63-4.15-10.45-1.24-.63-2.77-.36-4.55.81-8.24,5.4-3.46,60.51-3.41,61.07Z" style="fill:#407BFF"></path><path d="M97.34,383.67c-.07-1.76-1.51-43.07,6.45-46.69a5.59,5.59,0,0,1,4.73,0c5.46,2.4,8.83,12.57,9,13l-.95.31c0-.1-3.37-10.18-8.42-12.4a4.56,4.56,0,0,0-3.92,0c-6.1,2.78-6.3,34-5.86,45.74Z" style="fill:#407BFF"></path><path d="M95.31,381.78l-1-.11c1.4-12.3,4.08-45.06-.3-49a1.71,1.71,0,0,0-1.79-.56c-2.93,1.13-4.72,11.79-5.16,15.8l-1-.11c.17-1.54,1.77-15.07,5.8-16.62a2.68,2.68,0,0,1,2.82.74C100.35,337,95.52,380,95.31,381.78Z" style="fill:#407BFF"></path><polygon points="78.63 358.47 114.55 358.47 111.55 398.71 81.63 398.71 78.63 358.47" style="fill:#263238"></polygon><path d="M83.52,343.7c-.38,1-3.17.21-5.36-.57-.75,1.74-.58,4,.07,6.41,2.5,0,6,.07,6.31.7s-3.44.93-5.77,1a40.05,40.05,0,0,0,2.28,5.18c1.3-.32,2.68-.47,3.07.24s-.46,1.88-1.37,2.81c1.4,2.35,2.54,3.95,2.54,3.95a48.12,48.12,0,0,0,4.65-5.11c0-.26,0-.53,0-.8.09-1,.6-1.11,1.21-.91a23.63,23.63,0,0,0,2.39-4.21c-2.07-1.8-4.41-4.29-2.56-5.1,1.11-.49,2.34.07,3.45,1a5.81,5.81,0,0,0-.14-1.11c-1.65-7.07-7.24-4-7.24-4-1.33-3.45-5.12-4.82-7.67-2C81,341.54,84,342.49,83.52,343.7Z" style="fill:#407BFF"></path><path d="M83.52,343.7c-.38,1-3.17.21-5.36-.57-.75,1.74-.58,4,.07,6.41,2.5,0,6,.07,6.31.7s-3.44.93-5.77,1a40.05,40.05,0,0,0,2.28,5.18c1.3-.32,2.68-.47,3.07.24s-.46,1.88-1.37,2.81c1.4,2.35,2.54,3.95,2.54,3.95a48.12,48.12,0,0,0,4.65-5.11c0-.26,0-.53,0-.8.09-1,.6-1.11,1.21-.91a23.63,23.63,0,0,0,2.39-4.21c-2.07-1.8-4.41-4.29-2.56-5.1,1.11-.49,2.34.07,3.45,1a5.81,5.81,0,0,0-.14-1.11c-1.65-7.07-7.24-4-7.24-4-1.33-3.45-5.12-4.82-7.67-2C81,341.54,84,342.49,83.52,343.7Z" style="fill:#fff;isolation:isolate;opacity:0.30000000000000004"></path><path d="M110.19,348.48a14,14,0,0,0-3.28.69,7.36,7.36,0,0,1-.48-2.37c-.23-7.25,5-4.2,7.7-6.32a5.86,5.86,0,0,1,4.58-1.44,11,11,0,0,0-.62,1.24,1.15,1.15,0,0,0,.88,1.55,3.29,3.29,0,0,0,2-.24,3.34,3.34,0,0,0,.53-.37,10,10,0,0,1,1,2.43,13.43,13.43,0,0,1,.47,3.1,10.37,10.37,0,0,0-1.21.34,1.12,1.12,0,0,0-.45,1.72,5.11,5.11,0,0,0,1.49,1.05,17.18,17.18,0,0,1-.91,3.4l-.37.05a7.44,7.44,0,0,0-.78.2,3.26,3.26,0,0,0-.44.15,1.17,1.17,0,0,0-.67.88,1.13,1.13,0,0,0,.42,1,4.34,4.34,0,0,0,.54.33,8,8,0,0,1-2.87,2.9,30.08,30.08,0,0,1-3-1.62c.22-.29.43-.58.63-.88a1.64,1.64,0,0,0,.31-1.13,1.54,1.54,0,0,0-.59-1,1.56,1.56,0,0,0-2.16.28c-.24.36-.5.7-.76,1a18.83,18.83,0,0,1-3.68-3.57l.11,0a10.87,10.87,0,0,1,2-.34,1.54,1.54,0,1,0-.4-3.06Z" style="fill:#407BFF"></path><path d="M110.19,348.48a14,14,0,0,0-3.28.69,7.36,7.36,0,0,1-.48-2.37c-.23-7.25,5-4.2,7.7-6.32a5.86,5.86,0,0,1,4.58-1.44,11,11,0,0,0-.62,1.24,1.15,1.15,0,0,0,.88,1.55,3.29,3.29,0,0,0,2-.24,3.34,3.34,0,0,0,.53-.37,10,10,0,0,1,1,2.43,13.43,13.43,0,0,1,.47,3.1,10.37,10.37,0,0,0-1.21.34,1.12,1.12,0,0,0-.45,1.72,5.11,5.11,0,0,0,1.49,1.05,17.18,17.18,0,0,1-.91,3.4l-.37.05a7.44,7.44,0,0,0-.78.2,3.26,3.26,0,0,0-.44.15,1.17,1.17,0,0,0-.67.88,1.13,1.13,0,0,0,.42,1,4.34,4.34,0,0,0,.54.33,8,8,0,0,1-2.87,2.9,30.08,30.08,0,0,1-3-1.62c.22-.29.43-.58.63-.88a1.64,1.64,0,0,0,.31-1.13,1.54,1.54,0,0,0-.59-1,1.56,1.56,0,0,0-2.16.28c-.24.36-.5.7-.76,1a18.83,18.83,0,0,1-3.68-3.57l.11,0a10.87,10.87,0,0,1,2-.34,1.54,1.54,0,1,0-.4-3.06Z" style="fill:#fff;isolation:isolate;opacity:0.5"></path><path d="M112.27,323.5a9.89,9.89,0,0,1,2-1.08,5.31,5.31,0,0,0-.79-1.46c-3.06-3.91-4.45,0-6.82.06a4,4,0,0,0-3,1.26,6.74,6.74,0,0,1,.87.38.79.79,0,0,1,.22,1.2,2.33,2.33,0,0,1-1.18.76,2.09,2.09,0,0,1-.43,0,6.64,6.64,0,0,0,.54,1.71,10,10,0,0,0,1.11,1.83,7.91,7.91,0,0,1,.79-.35.76.76,0,0,1,1,.71,3.39,3.39,0,0,1-.32,1.21,12.29,12.29,0,0,0,2,1.38l.22-.13c.16-.09.33-.17.49-.24a1.21,1.21,0,0,1,.3-.11.79.79,0,0,1,.74.16.77.77,0,0,1,.24.74,2.83,2.83,0,0,1-.14.41,5.5,5.5,0,0,0,2.78.26,19.73,19.73,0,0,0,.89-2.19c-.24-.05-.48-.11-.71-.18a1.17,1.17,0,0,1-.67-.46,1.12,1.12,0,0,1-.14-.8,1.06,1.06,0,0,1,1.26-.8c.28.08.57.15.86.21a12.67,12.67,0,0,0,.36-3.49l-.07,0a7.51,7.51,0,0,0-1.22.72,1.05,1.05,0,0,1-1.13-1.78Z" style="fill:#407BFF"></path><path d="M112.27,323.5a9.89,9.89,0,0,1,2-1.08,5.31,5.31,0,0,0-.79-1.46c-3.06-3.91-4.45,0-6.82.06a4,4,0,0,0-3,1.26,6.74,6.74,0,0,1,.87.38.79.79,0,0,1,.22,1.2,2.33,2.33,0,0,1-1.18.76,2.09,2.09,0,0,1-.43,0,6.64,6.64,0,0,0,.54,1.71,10,10,0,0,0,1.11,1.83,7.91,7.91,0,0,1,.79-.35.76.76,0,0,1,1,.71,3.39,3.39,0,0,1-.32,1.21,12.29,12.29,0,0,0,2,1.38l.22-.13c.16-.09.33-.17.49-.24a1.21,1.21,0,0,1,.3-.11.79.79,0,0,1,.74.16.77.77,0,0,1,.24.74,2.83,2.83,0,0,1-.14.41,5.5,5.5,0,0,0,2.78.26,19.73,19.73,0,0,0,.89-2.19c-.24-.05-.48-.11-.71-.18a1.17,1.17,0,0,1-.67-.46,1.12,1.12,0,0,1-.14-.8,1.06,1.06,0,0,1,1.26-.8c.28.08.57.15.86.21a12.67,12.67,0,0,0,.36-3.49l-.07,0a7.51,7.51,0,0,0-1.22.72,1.05,1.05,0,0,1-1.13-1.78Z" style="fill:#fff;isolation:isolate;opacity:0.30000000000000004"></path><path d="M83,330.75c-.21,1.47,3.77,2.44,7,3-.26,2.67-2,5.37-4.49,7.89-3.09-1.74-7.49-4-8.3-3.48s3.62,3.53,6.44,5.25a57.06,57.06,0,0,1-6.39,4.84c-1.38-1.3-3-2.43-4-1.82s-.73,2.64-.24,4.42c-3.36,2-5.87,3.15-5.87,3.15A67.5,67.5,0,0,1,65,344.45c.17-.33.34-.67.49-1,.54-1.25,0-1.78-.88-2a32.82,32.82,0,0,1,0-6.86c3.79-.8,8.41-2.27,6.68-4.55-1-1.38-2.95-1.53-4.94-1.19a8.61,8.61,0,0,1,.94-1.28c6.92-7.61,11.74,0,11.74,0,4-3.34,9.66-2.44,10.88,2.79C87.57,329.8,83.25,328.94,83,330.75Z" style="fill:#407BFF"></path><path d="M83,330.75c-.21,1.47,3.77,2.44,7,3-.26,2.67-2,5.37-4.49,7.89-3.09-1.74-7.49-4-8.3-3.48s3.62,3.53,6.44,5.25a57.06,57.06,0,0,1-6.39,4.84c-1.38-1.3-3-2.43-4-1.82s-.73,2.64-.24,4.42c-3.36,2-5.87,3.15-5.87,3.15A67.5,67.5,0,0,1,65,344.45c.17-.33.34-.67.49-1,.54-1.25,0-1.78-.88-2a32.82,32.82,0,0,1,0-6.86c3.79-.8,8.41-2.27,6.68-4.55-1-1.38-2.95-1.53-4.94-1.19a8.61,8.61,0,0,1,.94-1.28c6.92-7.61,11.74,0,11.74,0,4-3.34,9.66-2.44,10.88,2.79C87.57,329.8,83.25,328.94,83,330.75Z" style="fill:#fff;isolation:isolate;opacity:0.5"></path></g><g id="freepik--character-1--inject-31"><polygon points="132.32 252.56 115.68 373.1 206.69 364.07 169.26 252.28 132.32 252.56" style="fill:#407BFF"></polygon><polygon points="132.32 252.56 115.68 373.1 206.69 364.07 169.26 252.28 132.32 252.56" style="fill:#fff;opacity:0.4"></polygon><path d="M204.56,205l15.5-7.85a30.65,30.65,0,0,0,7.37-.34c4-.69,4.86-.73,4.38-3.88s.19-7.35-1-7.79-10.11,3.69-11.56,6.1l-15.09,5Z" style="fill:#e4897b"></path><path d="M163.41,188.45v18s3.84,1.27,8.61,2.6c5.47,1.52,12.16,3.12,15.64,2.95,6.5-.32,31.1-13.37,31.1-13.37l-2.17-7.85s-28.43,10-31.43,9.45S163.41,188.45,163.41,188.45Z" style="fill:#407BFF"></path><path d="M163.41,188.45v18s3.84,1.27,8.61,2.6c5.47,1.52,12.16,3.12,15.64,2.95,6.5-.32,31.1-13.37,31.1-13.37l-2.17-7.85s-28.43,10-31.43,9.45S163.41,188.45,163.41,188.45Z" style="fill:#fff;opacity:0.7000000000000001"></path><path d="M163.41,197.22v9.24s3.84,1.27,8.61,2.6C170.26,203.7,165.87,199.33,163.41,197.22Z" style="isolation:isolate;opacity:0.2"></path><polygon points="157.22 407.3 151.3 404.36 154.5 395.46 157.42 387.37 165.04 389.68 160.91 399 157.22 407.3" style="fill:#e4897b"></polygon><polygon points="158.97 403.19 152.79 400.22 155.56 392.05 163.18 394.35 158.97 403.19" style="isolation:isolate;opacity:0.2"></polygon><path d="M150.38,403c.34-.64,8.11,3.85,8.11,3.85s2.45,7.47,6.68,11,.13,5-5.23,2.39l-13.26-6.57C142.87,411.78,146.86,409.71,150.38,403Z" style="fill:#263238"></path><path d="M162.5,411.18c-1.14.26-3.22-2.31-3.63-2.83a.2.2,0,0,1,0-.08h0a.22.22,0,0,1,0-.08h0a.24.24,0,0,1,0-.08h0a.35.35,0,0,1,0-.08c.08-.07,1.68-1.6,3-1.51a1.37,1.37,0,0,1,1,.54c.28.36.35.67.2.94s-1,.55-1.84.57a3.66,3.66,0,0,1,1.7,1.09,1,1,0,0,1,.16.76,1,1,0,0,1-.47.7Zm-.11-.46c.05,0,.19-.05.26-.4a.51.51,0,0,0-.09-.4c-.41-.62-1.89-1.09-2.89-1.34C160.61,409.67,161.86,410.84,162.39,410.72ZM159.62,408c1.41.14,2.87.09,3.07-.27.06-.1-.07-.3-.16-.41a.92.92,0,0,0-.68-.36,2.29,2.29,0,0,0-1.07.27A6.14,6.14,0,0,0,159.62,408Z" style="fill:#407BFF"></path><path d="M167.76,256.9s19.55,46.19,22.62,66.46-28.19,75.58-28.19,75.58l-9.1-5.65s15.48-56,15.48-65.09-20.14-50.84-20.14-50.84S146.49,260.54,167.76,256.9Z" style="fill:#263238"></path><g style="isolation:isolate;opacity:0.1"><path d="M167.76,256.9s19.55,46.19,22.62,66.46-28.19,75.58-28.19,75.58l-9.1-5.65s15.48-56,15.48-65.09-20.14-50.84-20.14-50.84S146.49,260.54,167.76,256.9Z" style="fill:#fff"></path></g><polygon points="151.99 392.46 164.73 397.55 161.7 401.95 150.55 397.66 151.99 392.46" style="fill:#263238"></polygon><path d="M165.29,236.94,133,239.73c-.76-12-1.53-19.73-8.63-41.11-.62-1.87-1.29-3.86-2-6a95.27,95.27,0,0,1,13.39-3.23,105.36,105.36,0,0,1,14.49-1.54c6.29,0,13.49.67,13.49.67s.57.37,1.21,7C165.54,201.84,166.59,214.21,165.29,236.94Z" style="fill:#407BFF"></path><path d="M165.29,236.94,133,239.74a121.86,121.86,0,0,0-2.45-19.5,188.11,188.11,0,0,0-5.28-18.81c-.28-.91-.59-1.85-.91-2.81-.62-1.87-1.28-3.85-2-6a98.13,98.13,0,0,1,13.39-3.23,103.81,103.81,0,0,1,14.49-1.53c6.29-.05,13.49.67,13.49.67s.57.37,1.21,7C165.54,201.84,166.59,214.21,165.29,236.94Z" style="isolation:isolate;opacity:0.30000000000000004"></path><path d="M147.05,195.35c-8-1-10.34-4.42-10.34-4.42,5-4.76.85-13,.85-13l9.58,1.79a29.2,29.2,0,0,0-.38,4c-.07,5.81,2.56,5.87,2.56,5.87C151,192.76,147.05,195.35,147.05,195.35Z" style="fill:#e4897b"></path><path d="M147.14,179.71a29.2,29.2,0,0,0-.38,4c-4.61-1.07-9.2-5.82-9.2-5.82Z" style="isolation:isolate;opacity:0.2"></path><polygon points="150.93 411.4 144.32 411.4 143.23 402.19 142.25 393.74 150.1 392.46 150.54 402.49 150.93 411.4" style="fill:#e4897b"></polygon><path d="M142.9,411c0-.73,9-.15,9-.15s5.51,5.6,10.86,6.86,2.36,4.47-3.62,4.47h-14.8C140.07,422.15,142.72,418.53,142.9,411Z" style="fill:#263238"></path><path d="M142.9,411c0-.73,9-.15,9-.15s5.51,5.6,10.86,6.86,2.36,4.47-3.62,4.47h-14.8C140.07,422.15,142.72,418.53,142.9,411Z" style="fill:#fff;isolation:isolate;opacity:0.1"></path><path d="M152.88,412l-.08-.05h0a.16.16,0,0,1,0-.07h0a.19.19,0,0,1,0-.07h0a.16.16,0,0,1,0-.1c0-.11.78-2.18,2-2.68a1.38,1.38,0,0,1,1.16,0c.41.19.61.45.59.75,0,.47-.66.94-1.39,1.33a3.75,3.75,0,0,1,2,.22,1,1,0,0,1,.48.61.86.86,0,0,1-.22.95,1.2,1.2,0,0,1-.79.22A11.08,11.08,0,0,1,152.88,412Zm.82-.15c1.32.56,3,1.06,3.38.71,0,0,.15-.12.06-.47a.54.54,0,0,0-.26-.32,2.24,2.24,0,0,0-1-.19A11.07,11.07,0,0,0,153.7,411.82Zm1.24-2.39a3.85,3.85,0,0,0-1.54,1.93c1.33-.51,2.61-1.2,2.63-1.61,0-.12-.2-.24-.32-.29a.88.88,0,0,0-.41-.1A.92.92,0,0,0,154.94,409.43Z" style="fill:#407BFF"></path><polygon points="150.7 405.94 143.8 407 142.57 398.45 150.42 397.12 150.7 405.94" style="isolation:isolate;opacity:0.2"></polygon><path d="M157.68,297.47c-4.75-10.78-9.25-20.11-9.25-20.11a17,17,0,0,1,.56-5.71,6.83,6.83,0,0,1,2.22-.93S157,279.8,157.68,297.47Z" style="isolation:isolate;opacity:0.2"></path><path d="M151.49,270.72l1.27,65v66.57H141.49C115,276.2,133.18,244.58,133.18,244.58l.07,0s0-.11.05-.15c4.25-9.44,32.12-2.48,32.12-2.48,2,7.83,3.29,23.73,3.29,23.73Z" style="fill:#263238"></path><path d="M151.49,270.72l1.27,65v66.57H141.49C115,276.2,133.18,244.58,133.18,244.58l.07,0s0-.11.05-.15c4.25-9.44,32.12-2.48,32.12-2.48,2,7.83,3.29,23.73,3.29,23.73Z" style="fill:#fff;isolation:isolate;opacity:0.1"></path><polygon points="133.2 239.71 133.2 244.44 165.47 241.96 165.47 236.38 133.2 239.71" style="fill:#263238"></polygon><rect x="142.46" y="237.76" width="1.6" height="8.16" transform="translate(-12.13 7.61) rotate(-2.92)" style="fill:#263238"></rect><rect x="151" y="237.83" width="7.08" height="5.37" transform="translate(-20.84 14.74) rotate(-5.12)" style="fill:#fff"></rect><rect x="162.17" y="235.6" width="1.6" height="8.16" transform="translate(-12.01 8.62) rotate(-2.92)" style="fill:#263238"></rect><rect x="142.46" y="237.76" width="1.6" height="8.16" transform="translate(-12.13 7.61) rotate(-2.92)" style="fill:#fff;isolation:isolate;opacity:0.2"></rect><rect x="162.17" y="235.6" width="1.6" height="8.16" transform="translate(-12.01 8.62) rotate(-2.92)" style="fill:#fff;isolation:isolate;opacity:0.2"></rect><polygon points="140.07 400.73 153.92 398.7 152.76 404.23 141.33 405.77 140.07 400.73" style="fill:#263238"></polygon><polygon points="150.8 188.66 146.2 192.33 137.53 190.52 139.35 198.47 154.94 196.19 150.8 188.66" style="fill:#407BFF"></polygon><polygon points="150.8 188.66 146.2 192.33 137.53 190.52 139.35 198.47 154.94 196.19 150.8 188.66" style="opacity:0.30000000000000004"></polygon><polygon points="146.24 192.33 141.88 198.47 134.65 192.6 138.38 187.76 146.24 192.33" style="fill:#407BFF"></polygon><polygon points="146.24 192.33 151.32 196.5 150.25 189.97 147.32 186.23 146.24 192.33" style="fill:#407BFF"></polygon><path d="M122.37,192.67l15.53-4.5,12.9,54.91-3.59,136.16-31.5-5.68c2.6-50,6.78-96.88,17-132Z" style="fill:#407BFF"></path><path d="M122.37,192.67l15.49-4.5,12.91,54.91-3.59,136.16-31.5-5.68c2.6-50,6.77-96.88,17-132Z" style="fill:#fff;opacity:0.8"></path><polygon points="134.04 189.21 133.13 203.81 138.61 208.76 134.11 212.93 150.46 257.46 150.84 243.09 137.9 188.17 134.04 189.21" style="fill:#fff;opacity:0.7000000000000001"></polygon><path d="M163.74,188.57c6.07,17,5,33.8,1.73,52.77l41.25,123.19-23,10.63c-7.75-53.72-15.17-111.63-25.46-133.63-.29-19.15.21-38.48-10.82-55.17Z" style="fill:#407BFF"></path><path d="M163.74,188.57c6.07,17,5,33.8,1.73,52.77l41.25,123.19-23,10.63c-7.51-54.15-14.88-109.73-25.46-133.63-.29-19.15.21-38.48-10.82-55.17Z" style="fill:#fff;opacity:0.8"></path><path d="M147.42,186.36l3.42.46L161,199.42l-2.76,4.5,3.87,3,2.51,53.92a143.45,143.45,0,0,0-6.38-19.35C157.85,215.34,155.88,198.23,147.42,186.36Z" style="fill:#fff;opacity:0.7000000000000001"></path><path d="M127.44,157a5.09,5.09,0,0,1,4.53-3.07h5l-3.78,9.88.22,12.38-1.67-3.77-.47,3.77s-4-8.58-4.27-11.11S126.2,160.06,127.44,157Z" style="fill:#263238"></path><path d="M142.78,151.65c8.51-.46,11.5,3.94,12.6,12.68,1.38,10.92-.62,18.84-11.39,17.08C129.36,179,128.64,152.43,142.78,151.65Z" style="fill:#e4897b"></path><path d="M149.85,164.16a18.63,18.63,0,0,0,2.67,3.39,2.34,2.34,0,0,1-2.19,1.09Z" style="fill:#a24e3f"></path><path d="M144.61,163.74c0,.7-.28,1.3-.75,1.33s-.88-.5-.94-1.19.28-1.3.74-1.33S144.55,163.05,144.61,163.74Z" style="fill:#2e353a"></path><path d="M143.47,162.6l1.48-.72S144.29,163.22,143.47,162.6Z" style="fill:#2e353a"></path><path d="M153.28,162.92c.05.7-.28,1.29-.75,1.33s-.89-.5-.94-1.2.28-1.29.74-1.33S153.22,162.22,153.28,162.92Z" style="fill:#2e353a"></path><path d="M152.14,161.77l1.47-.71S153,162.39,152.14,161.77Z" style="fill:#2e353a"></path><path d="M140.58,159.72a.31.31,0,0,1-.21-.07.35.35,0,0,1-.08-.5,4.75,4.75,0,0,1,3.94-1.64.37.37,0,0,1,.33.39.36.36,0,0,1-.39.33,4.11,4.11,0,0,0-3.3,1.34A.35.35,0,0,1,140.58,159.72Z" style="fill:#2e353a"></path><path d="M153.8,158.05a.41.41,0,0,1-.19-.05,3.56,3.56,0,0,0-3.1-.49.37.37,0,0,1-.29-.67,4.3,4.3,0,0,1,3.76.54.36.36,0,0,1-.18.67Z" style="fill:#2e353a"></path><path d="M149.28,172.05a21.72,21.72,0,0,0-.84,3l-.55,0c-2.49-.11-3.6-1-4.09-1.93a3.27,3.27,0,0,1-.33-1.48,3,3,0,0,1,.12-.87,11.69,11.69,0,0,0,4.84,1.24C149,172.05,149.28,172.05,149.28,172.05Z" style="fill:#2e353a"></path><path d="M148.43,172l-.27.88c-2.35-.11-4-.51-4.69-1.25a3,3,0,0,1,.12-.87A11.69,11.69,0,0,0,148.43,172Z" style="fill:#fff"></path><path d="M147.89,175c-2.49-.11-3.6-1-4.09-1.93a8.28,8.28,0,0,1,2.74.68A3,3,0,0,1,147.89,175Z" style="fill:#de5753"></path><path d="M134.26,166.51s3.6-7.21,2.7-12.58c0,0,16.49-7.81,18.26,9.26,0,0,.81-15.29-13.84-14.83s-13.41,21.87-5.51,27.83C135.87,176.19,132,171,134.26,166.51Z" style="fill:#263238"></path><path d="M135.75,168.23a3.73,3.73,0,0,0-4.21-3.19c-2.62.43-3.58,5.91,3.05,6.85C135.54,172,136,171.08,135.75,168.23Z" style="fill:#e4897b"></path><path d="M132,153.93s-1.38-4.46,2.44-7.05,10.53-1.46,14.87,0S158,161.06,158,161.06a42,42,0,0,0-7.67-8.55l-12-.11L137,153.93Z" style="fill:#263238"></path><path d="M126.05,158.33c-9.34-4.78-21.27,4.1-16.25,11.28.77,10.57,7.74,10.9,11.89,3.62,6-4.86,4.45-9.07,2.09-13.21-.47,1.62.57,4.39-5.46,6.6l-1.38-.86c4.2-5,6.84-3.66,9.61-2.74Z" style="fill:#2e353a"></path><path d="M104.87,176.48c1.75-10.84,5.51-18,12.61-19.18l2.8-.32C112.86,158.56,107.94,165.52,104.87,176.48Z" style="fill:#2e353a"></path><path d="M109.2,175.68c-1.4-10.81,2.74-16.93,12-18.67l-4.78.5C109,160.34,107.1,166.72,109.2,175.68Z" style="fill:#2e353a"></path><path d="M125.69,158.24l.44,4.71a.88.88,0,0,0,.75.31.78.78,0,0,0,.64-.43l-.33-4.67a.76.76,0,0,0-.73-.5A1,1,0,0,0,125.69,158.24Z" style="fill:#407BFF"></path><path d="M190.92,230.13a2.62,2.62,0,1,1-3,2.17A2.62,2.62,0,0,1,190.92,230.13Z" style="fill:#263238"></path><g style="opacity:0.6000000000000001"><path d="M190.92,230.13a2.62,2.62,0,1,1-3,2.17A2.62,2.62,0,0,1,190.92,230.13Z" style="fill:#fff"></path></g><path d="M189.51,231.65a1.46,1.46,0,1,1-1.68,1.21A1.46,1.46,0,0,1,189.51,231.65Z" style="fill:#263238"></path><g style="opacity:0.7000000000000001"><path d="M189.51,231.65a1.46,1.46,0,1,1-1.68,1.21A1.46,1.46,0,0,1,189.51,231.65Z" style="fill:#fff"></path></g><path d="M162.36,287.09a4.33,4.33,0,0,1-2.72-1.08c-3.7-3-6.18-12.23-6.34-19-.38-12.57,1.77-26,3.49-36.79,1.33-8.31,2.48-15.47,2-19.31.2-5.51-3.79-16-7.64-26.18l-.7-1.85.93-.35.7,1.84c3.89,10.26,7.91,20.86,7.7,26.49.54,3.9-.56,10.79-2,19.51-1.72,10.75-3.86,24.13-3.48,36.61.16,6.61,2.6,15.54,6,18.28a3.16,3.16,0,0,0,2.61.81c6.39-.21,12.68-9.26,19.31-27.66,2-4,2.62-8,3.41-13.11.43-2.79.92-6,1.72-9.51l1,.21c-.79,3.53-1.28,6.68-1.71,9.45-.8,5.18-1.44,9.27-3.48,13.36-6.86,19-13.26,28-20.12,28.25A3.36,3.36,0,0,1,162.36,287.09Z" style="fill:#263238"></path><g style="opacity:0.2"><path d="M162.36,287.09a4.33,4.33,0,0,1-2.72-1.08c-3.7-3-6.18-12.23-6.34-19-.38-12.57,1.77-26,3.49-36.79,1.33-8.31,2.48-15.47,2-19.31.2-5.51-3.79-16-7.64-26.18l-.7-1.85.93-.35.7,1.84c3.89,10.26,7.91,20.86,7.7,26.49.54,3.9-.56,10.79-2,19.51-1.72,10.75-3.86,24.13-3.48,36.61.16,6.61,2.6,15.54,6,18.28a3.16,3.16,0,0,0,2.61.81c6.39-.21,12.68-9.26,19.31-27.66,2-4,2.62-8,3.41-13.11.43-2.79.92-6,1.72-9.51l1,.21c-.79,3.53-1.28,6.68-1.71,9.45-.8,5.18-1.44,9.27-3.48,13.36-6.86,19-13.26,28-20.12,28.25A3.36,3.36,0,0,1,162.36,287.09Z" style="fill:#fff"></path></g><path d="M133.19,169s2.25,10.52,3.92,12.23,7.69,3.87,11.66,2.29,6.81-2.48,7.94-5.37a5.93,5.93,0,0,0-.91-5.45l0-2.07s2.85,4.34,1.9,7.47-4.35,5.31-8.88,6.56-11.5-.58-12.92-3-3.94-12.35-3.94-12.35Z" style="fill:#263238"></path><path d="M133.19,169s2.25,10.52,3.92,12.23,7.69,3.87,11.66,2.29,6.81-2.48,7.94-5.37a5.93,5.93,0,0,0-.91-5.45l0-2.07s2.85,4.34,1.9,7.47-4.35,5.31-8.88,6.56-11.5-.58-12.92-3-3.94-12.35-3.94-12.35Z" style="fill:#fff;opacity:0.5"></path><path d="M179.44,236.41l7.8-2.55-1.31,9.51s-5.56.14-8.62-4.2Z" style="fill:#e4897b"></path><polygon points="194.81 236.69 192.52 243.57 185.93 243.37 187.24 233.86 194.81 236.69" style="fill:#e4897b"></polygon><polygon points="172.73 231.94 182.28 235.49 180.23 241.27 170.52 237.55 172.73 231.94" style="fill:#e4897b"></polygon><path d="M131.81,194.14c-2.71-3.89-8.31-3.36-10.74-.42s-1.51,8,1.17,12.13c5.85,11.14,17.82,21.64,22.5,23.81l31.66,11.66,2.59-8.53-29.46-13.63C145.21,216.23,138.14,203.87,131.81,194.14Z" style="fill:#407BFF"></path><path d="M131.81,194.14c-2.71-3.89-8.31-3.36-10.74-.42s-1.51,8,1.17,12.13c5.85,11.14,17.82,21.64,22.5,23.81l31.66,11.66,2.59-8.53-29.46-13.63C145.21,216.23,138.14,203.87,131.81,194.14Z" style="fill:#fff;opacity:0.7000000000000001"></path><polygon points="240.72 182.82 241.22 184.57 244.61 182.38 243.99 177.57 243 177.85 243.2 181.73 240.72 182.82" style="fill:#263238"></polygon><polygon points="240.72 182.82 241.22 184.57 244.61 182.38 243.99 177.57 243 177.85 243.2 181.73 240.72 182.82" style="fill:#fff;opacity:0.1"></polygon><rect x="237.91" y="159.41" width="1.26" height="2.71" transform="translate(511.9 250.34) rotate(164.17)" style="fill:#263238"></rect><rect x="209.99" y="161.92" width="27.16" height="0.72" transform="translate(482.94 257.4) rotate(164.16)" style="fill:#263238"></rect><rect x="238.34" y="153.88" width="27.16" height="0.72" transform="translate(536.38 233.89) rotate(164.17)" style="fill:#263238"></rect><rect x="236.67" y="157.52" width="2.41" height="1.99" transform="translate(509.97 246.1) rotate(164.17)" style="fill:#263238"></rect><rect x="236.67" y="157.52" width="2.41" height="1.99" transform="translate(509.97 246.1) rotate(164.17)" style="fill:#fff;opacity:0.1"></rect><path d="M238.6,184c.56,2,2.19,3.22,3.64,2.81s2.18-2.34,1.62-4.31-2.19-3.22-3.64-2.81S238,182,238.6,184Z" style="fill:#263238"></path><path d="M239,183.73c.34,1.19,1.33,2,2.21,1.7a2,2,0,0,0,1-2.6c-.34-1.19-1.33-2-2.21-1.7A2,2,0,0,0,239,183.73Z" style="fill:#fff;opacity:0.2"></path><path d="M251.93,180.22c.56,2,2.19,3.23,3.65,2.82s2.18-2.34,1.62-4.31-2.19-3.23-3.64-2.81S251.38,178.26,251.93,180.22Z" style="fill:#263238"></path><path d="M252.37,180c.34,1.19,1.32,2,2.2,1.7a2,2,0,0,0,1-2.6c-.33-1.19-1.32-2-2.2-1.71A2,2,0,0,0,252.37,180Z" style="fill:#fff;opacity:0.2"></path><path d="M225.51,187.13c.35,1.24,1.37,2,2.28,1.77a2.1,2.1,0,0,0,1-2.7c-.35-1.23-1.37-2-2.28-1.76A2.08,2.08,0,0,0,225.51,187.13Z" style="fill:#263238"></path><path d="M225.78,187c.21.75.83,1.23,1.38,1.07a1.27,1.27,0,0,0,.62-1.63c-.22-.75-.83-1.22-1.38-1.07A1.27,1.27,0,0,0,225.78,187Z" style="fill:#fff;opacity:0.2"></path><path d="M210.8,179.6l17,2.56,27.75-7.88,3.84-1.08,2.07-2.83-1.44-5.1-3.3-1.49-3.43,1-4.34-4.6c-1.25-1.13-4.67-1.13-6.41-.64L236,162.42c-3.57,2-5.11,2.8-7.53,4.15-1.33,1.05-2.41,3.78-3.54,6.22l-14.84,4.46Z" style="fill:#407BFF"></path><path d="M252.1,164.74a59.77,59.77,0,0,0-13,3.84c-.73-1.77-1.13-4.14,0-5.63,1.42-1.8,5.76-3.84,8.86-2.65C249.35,160.75,250.72,162.92,252.1,164.74Z" style="fill:#fff"></path><path d="M237,163.41c-1.6,1.2-1.5,4.54-1,6.43l-5.41,1.54c-.23-2.25.45-4.93,2.35-6.2Z" style="fill:#fff"></path><path d="M231.49,165.7l-2.7,1.26c-1.67,1.18-2.31,3.43-2.89,5.74l3.2-.91A10.14,10.14,0,0,1,231.49,165.7Z" style="fill:#fff"></path><polygon points="209.67 173.01 212.54 176.53 211.21 177.63 208.56 173.42 209.67 173.01" style="fill:#407BFF"></polygon><path d="M211.92,177.86l-1-.3,1.29-4.26c.07-.22.3-.34.62-.25s.43.3.37.55Z" style="fill:#263238"></path><path d="M211.92,177.86l-1-.3,1.29-4.26c.07-.22.3-.34.62-.25s.43.3.37.55Z" style="fill:#fff;opacity:0.30000000000000004"></path><path d="M210.5,179l1,.3-1.29,4.27c-.07.22-.3.33-.61.25s-.43-.31-.37-.55Z" style="fill:#263238"></path><path d="M210.5,179l1,.3-1.29,4.27c-.07.22-.3.33-.61.25s-.43-.31-.37-.55Z" style="fill:#fff;opacity:0.30000000000000004"></path><path d="M212.05,178.13c.18.66-.05,1.3-.52,1.43s-1-.29-1.19-.94,0-1.3.52-1.43S211.86,177.48,212.05,178.13Z" style="fill:#263238"></path><path d="M212.05,178.13c.18.66-.05,1.3-.52,1.43s-1-.29-1.19-.94,0-1.3.52-1.43S211.86,177.48,212.05,178.13Z" style="fill:#fff;opacity:0.1"></path><path d="M263.42,166.87c-.28-1-3-4.53-8.22-2.85l-5,1.43c-2.77.77-2.45,2.14-1.88,3.89l1.3,4.61c.34,1.19,2,1.45,3.62,1L258,173.7c4.57-1.41,6.11-4.38,5.59-6.21Z" style="fill:#407BFF"></path><path d="M263.42,166.87c-.28-1-3-4.53-8.22-2.85l-5,1.43c-2.77.77-2.45,2.14-1.88,3.89l1.3,4.61c.34,1.19,2,1.45,3.62,1L258,173.7c4.57-1.41,6.11-4.38,5.59-6.21Z" style="fill:#fff;opacity:0.4"></path><polygon points="253.85 179.1 254.34 180.84 250.3 180.76 248.31 176.35 249.3 176.07 251.17 179.47 253.85 179.1" style="fill:#263238"></polygon><polygon points="253.85 179.1 254.34 180.84 250.3 180.76 248.31 176.35 249.3 176.07 251.17 179.47 253.85 179.1" style="fill:#fff;opacity:0.1"></polygon><line x1="226.38" y1="186.18" x2="226.68" y2="187.23" style="fill:#fff;opacity:0.1"></line><polygon points="226.38 186.18 226.68 187.23 231.23 184.19 230.86 181.3 230.26 181.47 230.38 183.8 226.38 186.18" style="fill:#263238"></polygon><polygon points="226.38 186.18 226.68 187.23 231.23 184.19 230.86 181.3 230.26 181.47 230.38 183.8 226.38 186.18" style="fill:#fff;opacity:0.1"></polygon></g></svg>
